<?xml version="1.0" encoding="UTF-8"?>
<svg id="_レイヤー_2" data-name="レイヤー 2" xmlns="http://www.w3.org/2000/svg" viewBox="0 0 269.83 100.16">
  <defs>
    <style>
      .cls-1 {
        fill: #c2c1c1;
      }

      .cls-2 {
        fill: #fce8e7;
      }
    </style>
  </defs>
  <g id="_レイヤー_1-2" data-name="レイヤー 1">
    <g>
      <path class="cls-1" d="M55.29.02S29.82-1.8,1.07,28.92c-1.72,1.84-1.29,4.94.84,6.04,1.97,1.01,4.6,2.28,7.72,3.6-1.48,1.64-2.98,3.39-4.5,5.26-1.49,1.84-.87,4.68,1.19,5.52,2.56,1.05,6.22,2.4,10.66,3.65-.71,1.17-1.43,2.37-2.14,3.64-1.15,2.03-.14,4.61,1.98,5.03,6.31,1.23,19.2,1.86,32.98-4.19l48.79-26.5C76.61.09,55.29.02,55.29.02Z"/>
      <path class="cls-2" d="M50.86,13.94s-13.83,0-31.29,17.2c-1.05,1.03-.75,2.8.57,3.44,1.22.59,2.85,1.33,4.79,2.11-.9.92-1.81,1.9-2.73,2.95-.9,1.03-.5,2.65.78,3.15,1.59.62,3.85,1.42,6.6,2.16-.43.66-.86,1.34-1.29,2.05-.69,1.14-.05,2.62,1.26,2.87,3.9.75,11.72,1.8,20.16.39l29.96-17.13c-13.8-17.71-28.81-19.18-28.81-19.18Z"/>
      <path class="cls-1" d="M214.54.02s25.47-1.83,54.22,28.9c1.72,1.84,1.29,4.94-.84,6.04-1.97,1.01-4.6,2.28-7.72,3.6,1.48,1.64,2.98,3.39,4.5,5.26,1.49,1.84.87,4.68-1.19,5.52-2.56,1.05-6.22,2.4-10.66,3.65.71,1.17,1.43,2.37,2.14,3.64,1.15,2.03.14,4.61-1.98,5.03-6.31,1.23-19.2,1.86-32.98-4.19l-48.79-26.5C193.22.09,214.54.02,214.54.02Z"/>
      <path class="cls-2" d="M218.97,13.94s13.83,0,31.29,17.2c1.05,1.03.75,2.8-.57,3.44-1.22.59-2.85,1.33-4.79,2.11.9.92,1.81,1.9,2.73,2.95.9,1.03.5,2.65-.78,3.15-1.59.62-3.85,1.42-6.6,2.16.43.66.86,1.34,1.29,2.05.69,1.14.05,2.62-1.26,2.87-3.9.75-11.72,1.8-20.16.39l-29.96-17.13c13.8-17.71,28.81-19.18,28.81-19.18Z"/>
      <path class="cls-1" d="M264.87,97.67c-12.01-24.22-47.47-76.49-129.96-76.49S16.96,73.45,4.96,97.67c-.93,1.88,1.65,3.33,3.31,1.92,49.74-42.33,126.65-41.31,126.65-41.31,0,0,76.91-1.02,126.65,41.31,1.66,1.41,4.24-.04,3.31-1.92Z"/>
    </g>
  </g>
</svg>