<?xml version="1.0" encoding="UTF-8"?>
<svg id="svg2" xmlns="http://www.w3.org/2000/svg" version="1.1" xmlns:cc="http://creativecommons.org/ns#" xmlns:dc="http://purl.org/dc/elements/1.1/" xmlns:rdf="http://www.w3.org/1999/02/22-rdf-syntax-ns#" xmlns:svg="http://www.w3.org/2000/svg" viewBox="0 0 347.1 194.3">
  <!-- Generator: Adobe Illustrator 30.1.0, SVG Export Plug-In . SVG Version: 2.1.1 Build 136)  -->
  <defs>
    <style>
      .st0 {
        fill: #fff;
      }

      .st1 {
        fill: #fabfe2;
      }

      .st2 {
        fill: #f578a6;
      }
    </style>
  </defs>
  <g id="g10">
    <g id="g12">
      <path id="path14" class="st1" d="M346.8,191c-16-32.3-63.3-102-173.3-102S16.3,158.7.3,191c-1.2,2.5,2.2,4.4,4.4,2.6,66.3-56.4,168.9-55.1,168.9-55.1,0,0,102.5-1.4,168.9,55.1,2.2,1.9,5.6,0,4.4-2.6"/>
      <path class="st2" d="M326.9,63.3c-14-15.1-7.8-11.5-16.7-39.4-8.9-28-29.6-17.7-49.6-12.7-20,5-66.8,51.1-66.8,51.1,0,0,.8.5,1.8,2.2-.7-1-1.3-1.8-1.8-2.2-4.1-3.6-6.4-5.1-17.2-4.9-10.1.1-16,4.9-16,4.9,0,0-46.7-46.1-66.8-51.1-20-5-40.8-15.2-49.6,12.7-8.9,28-2.7,24.3-16.7,39.4-14,15.1-13.8,53.2,14.1,58.5,27.9,5.3,83.4,8.6,116.7,3.9,5,3.4,13.8,4.5,19.7,3.9,5.6-.6,14.1-1.2,18.2-3.9,33.3,4.7,88.8,1.4,116.7-3.9,27.9-5.3,28-43.4,14.1-58.5Z"/>
      <path id="path16" class="st2" d="M160.7,57.1s5.9-4.8,16-4.9c10.8-.1,13.1,1.3,17.2,4.9,5.8,5.1,25.4,48.5,2.3,63.5-4.1,2.7-12.5,3.3-18.2,3.9-5.8.6-14.6-.5-19.7-3.9-44.3-29.8,2.3-63.5,2.3-63.5"/>
      <path id="path18" class="st1" d="M193.9,57.1S240.6,11,260.6,6c20-5,40.8-15.2,49.6,12.7,8.9,28,2.7,24.3,16.7,39.4,14,15.1,13.8,53.2-14.1,58.5-27.9,5.3-83.4,8.6-116.7,3.9,0,0,5.7-12.9,4.9-36-.8-23-7.2-27.5-7.2-27.5"/>
      <path id="path20" class="st1" d="M160.7,57.1S113.9,11,93.9,6c-20-5-40.8-15.2-49.6,12.7-8.9,28-2.7,24.3-16.7,39.4-14,15.1-13.8,53.2,14.1,58.5,27.9,5.3,83.4,8.6,116.7,3.9,0,0-5.7-12.9-4.9-36,.8-23,7.2-27.5,7.2-27.5"/>
      <path id="path22" class="st2" d="M200.4,99.1s95.6-32.6,112.1-26.5,15.1,8.1,12.3,14c-2.8,5.9,7.6,20.5-49.9,22.3-57.5,1.8-75.9-1.4-75.9-1.4l1.5-8.3"/>
      <path id="path24" class="st2" d="M156.3,97.5s-95.6-32.6-112.1-26.5c-16.4,6-15.1,8.1-12.3,14,2.8,5.9-7.6,20.5,49.9,22.3,57.5,1.8,75.9-1.4,75.9-1.4l-1.5-8.3"/>
    </g>
  </g>
  <g>
    <circle class="st0" cx="262.3" cy="116.9" r="1.4"/>
    <circle class="st0" cx="300.7" cy="143.7" r="1.4"/>
    <circle class="st0" cx="79.8" cy="139.5" r="1.4"/>
    <path class="st0" d="M280.8,133.5c.3,1.4-.6,2.9-2,3.2s-2.9-.6-3.2-2,.6-2.9,2-3.2,2.9.6,3.2,2Z"/>
    <circle class="st0" cx="280.9" cy="8.1" r="1.6"/>
    <path class="st0" d="M328.6,97.6c1.4.9,1.8,2.7.9,4.1s-2.7,1.8-4.1.9-1.8-2.7-.9-4.1,2.7-1.8,4.1-.9Z"/>
    <path class="st0" d="M234.1,36.2c3.4,12.7,3.7,12.9,16.6,10.1-12.7,3.4-12.9,3.7-10.1,16.6-3.4-12.7-3.7-12.9-16.6-10.1,12.7-3.4,12.9-3.7,10.1-16.6Z"/>
    <ellipse class="st0" cx="289.9" cy="17.8" rx="1.8" ry="1.7"/>
    <path class="st0" d="M263.3,57.5c1.8.5,2.8,2.2,2.3,3.9s-2.5,2.6-4.3,2.1-2.8-2.2-2.3-3.9,2.5-2.6,4.3-2.1Z"/>
    <path class="st0" d="M305.2,31c-4.1,13.4-3.9,13.7,10.6,18.1-14.6-3.7-15-3.5-19.7,9.7,4.1-13.4,3.9-13.7-10.6-18.1,14.6,3.7,15,3.5,19.7-9.7Z"/>
    <circle class="st0" cx="233.4" cy="116.9" r="1.7"/>
    <path class="st0" d="M271.4,24.7c1.7-.5,3.5.5,4,2.2s-.5,3.5-2.2,4-3.5-.5-4-2.2.5-3.5,2.2-4Z"/>
    <circle class="st0" cx="139.3" cy="65.3" r="1.6"/>
    <circle class="st0" cx="44.5" cy="143.7" r="1.6"/>
    <circle class="st0" cx="31.9" cy="162.5" r="1.6"/>
    <path class="st0" d="M224.4,132.5c1.5.8,2.1,2.6,1.4,4.1s-2.6,2.1-4.1,1.4-2.1-2.6-1.4-4.1,2.6-2.1,4.1-1.4Z"/>
    <path class="st0" d="M73.5,15.2c-5.8,12.2-5.7,12.6,6.3,18.9-12.2-5.8-12.6-5.7-18.9,6.3,5.8-12.2,5.7-12.6-6.3-18.9,12.2,5.8,12.6,5.7,18.9-6.3Z"/>
    <circle class="st0" cx="110.1" cy="36.2" r="2"/>
    <path class="st0" d="M118.1,56c.8-1.9,3-2.8,4.9-2s2.8,3,2,4.9-3,2.8-4.9,2-2.8-3-2-4.9Z"/>
    <path class="st0" d="M41,57.3c.8-1.9,3-2.8,4.9-2s2.8,3,2,4.9-3,2.8-4.9,2-2.8-3-2-4.9Z"/>
    <circle class="st0" cx="25.4" cy="79.4" r="1.1"/>
    <path class="st0" d="M88.7,47.7c1-.5,2.2,0,2.7.9s0,2.2-.9,2.7-2.2,0-2.7-.9,0-2.2.9-2.7Z"/>
    <path class="st0" d="M57.5,125.6c4.1,8,4.3,8.1,12.5,4.4-8,4.1-8.1,4.3-4.4,12.5-4.1-8-4.3-8.1-12.5-4.4,8-4.1,8.1-4.3,4.4-12.5Z"/>
    <circle class="st0" cx="58.8" cy="55.9" r="1.4"/>
    <circle class="st0" cx="287.5" cy="53.6" r="1.4"/>
    <circle class="st0" cx="123" cy="118.4" r="1.4"/>
    <circle class="st0" cx="216.8" cy="70.2" r="1.4"/>
    <path class="st0" d="M92.3,115.4c0,1.5-1.1,2.7-2.6,2.8s-2.7-1.1-2.8-2.6,1.1-2.7,2.6-2.8,2.7,1.1,2.8,2.6Z"/>
  </g>
</svg>