<?xml version="1.0" encoding="UTF-8"?>
<svg id="svg2" xmlns="http://www.w3.org/2000/svg" version="1.1" xmlns:cc="http://creativecommons.org/ns#" xmlns:dc="http://purl.org/dc/elements/1.1/" xmlns:rdf="http://www.w3.org/1999/02/22-rdf-syntax-ns#" xmlns:svg="http://www.w3.org/2000/svg" xmlns:xlink="http://www.w3.org/1999/xlink" viewBox="0 0 347.1 197.2">
  <!-- Generator: Adobe Illustrator 30.1.0, SVG Export Plug-In . SVG Version: 2.1.1 Build 136)  -->
  <defs>
    <style>
      .st0 {
        stroke-width: 7px;
      }

      .st0, .st1 {
        fill: none;
        stroke: #fff;
        stroke-linecap: round;
        stroke-linejoin: round;
      }

      .st2 {
        mix-blend-mode: color-dodge;
      }

      .st3 {
        fill: #fff;
      }

      .st4 {
        fill: #f2b22b;
      }

      .st1 {
        stroke-width: 5px;
      }

      .st5 {
        fill: #fdf9e6;
      }
    </style>
    <symbol id="_新規シンボル_24" data-name="新規シンボル_24" viewBox="0 0 43.6 43.6">
      <path class="st3" d="M43.6,21.8c-14.7,3.9-17.9,7.1-21.8,21.8-3.9-14.7-7.1-17.9-21.8-21.8C14.7,17.9,17.9,14.7,21.8,0c3.9,14.7,7.1,17.9,21.8,21.8Z"/>
    </symbol>
    <symbol id="_新規シンボル_31" data-name="新規シンボル_31" viewBox="0 0 48.6 48.6">
      <g class="st2">
        <path class="st3" d="M46.1,24.3c-14.7,3.9-17.9,7.1-21.8,21.8-3.9-14.7-7.1-17.9-21.8-21.8,14.7-3.9,17.9-7.1,21.8-21.8,3.9,14.7,7.1,17.9,21.8,21.8Z"/>
        <path class="st1" d="M46.1,24.3c-14.7,3.9-17.9,7.1-21.8,21.8-3.9-14.7-7.1-17.9-21.8-21.8,14.7-3.9,17.9-7.1,21.8-21.8,3.9,14.7,7.1,17.9,21.8,21.8Z"/>
      </g>
    </symbol>
    <symbol id="_新規シンボル_32" data-name="新規シンボル_32" viewBox="0 0 54.6 54.6">
      <g class="st2">
        <path class="st3" d="M52.1,27.3c-20.8,2.2-22.6,4-24.8,24.8-2.2-20.8-4-22.6-24.8-24.8,20.8-2.2,22.6-4,24.8-24.8,2.2,20.8,4,22.6,24.8,24.8Z"/>
        <path class="st1" d="M52.1,27.3c-20.8,2.2-22.6,4-24.8,24.8-2.2-20.8-4-22.6-24.8-24.8,20.8-2.2,22.6-4,24.8-24.8,2.2,20.8,4,22.6,24.8,24.8Z"/>
      </g>
    </symbol>
  </defs>
  <path id="path14" class="st5" d="M346.8,193.9c-16-32.3-63.3-102-173.3-102S16.3,161.6.3,193.9c-1.2,2.5,2.2,4.4,4.4,2.6,66.3-56.4,168.9-55.1,168.9-55.1,0,0,102.5-1.4,168.9,55.1,2.2,1.9,5.6,0,4.4-2.6"/>
  <g>
    <path class="st4" d="M50.9,110.4c.1.7,0,1.3-.6,2l-.8.9h1.1c.9.2,1.2.3,1.5,1.2s.8,1.1,1.2,0c.3-.6.5-.9,1.5-1.1l1.2-.3-.9-.7c-.8-.7-.8-.8-.6-1.8l.2-1.1-1.1.4c-.9.4-1.3.3-2.1,0l-1-.5.2,1Z"/>
    <path class="st4" d="M127.3,62.3c.2,1.1.3,2.2.2,2.4-.2.3-.7.9-2.3,2.4l-.7.7,2.1.3c1.1.2,2.2.3,2.2.3,0,0,.6.9,1.2,2l1,1.9,1-2,1-2,2.1-.3c1.1-.2,2.1-.4,2.1-.5,0,0-.6-.8-1.4-1.5-1.6-1.5-1.6-1.7-1.1-4.7l.2-1.2-2,1-2,1-1.9-1c-1-.6-2-1-2-.9,0,0,0,.9.3,2Z"/>
    <path class="st4" d="M90.2,76.6c.2.9.1,1.3-.7,2.1l-.9,1,1.3.2c1.2.2,1.4.3,1.8,1.3s.7,1.3,1.3,0c.4-.9.5-1,1.7-1.2s1.2-.3,1.3-.3c0-.1-.3-.5-.8-1-.9-.8-.9-.8-.6-1.9.3-1.5.2-1.6-1-.8-1,.6-1.1.6-2.1,0-1.3-.8-1.5-.7-1.2.7Z"/>
    <path class="st4" d="M111.7,69.8c.2.6,0,1.1-.5,1.6-.4.4-.7.9-.7,1s.6.2,1.1.3c.9,0,1.1.3,1.5,1.1l.4,1.1.5-1.1c.5-.9.7-1.1,1.4-1.1,1.3,0,1.4-.2.5-1-.8-.8-.9-.8-.6-2l.3-1.2-1,.6c-.8.6-1.1.6-1.8.2-1.1-.6-1.5-.5-1.2.5Z"/>
    <path class="st4" d="M52.9,97.2q.7,3.2-.8,4.7c-.7.7-1.4,1.5-1.5,1.6,0,.1.8.4,2,.5,1.7.2,2.2.4,2.4,1s.7,1.3,1,2l.8,1.2.9-1.9c.5-1.1,1-1.9,1.2-2s1.1-.2,2-.4,1.8-.3,1.9-.3-.4-.7-1.2-1.4c-.7-.7-1.4-1.5-1.6-1.8s0-1.4.2-2.5l.4-2-2.1,1.1c-1.2.6-2.1,1-2.2.9,0-.1-.9-.6-1.9-1.1l-1.9-.9.2,1.1Z"/>
    <path class="st4" d="M100.7,78.1l.4,2.1-1.2,1.3c-.7.7-1.4,1.4-1.7,1.7-.4.4-.1.5,1.7.7,2.3.3,2.7.6,3.8,3.3l.5,1.1,1-2,1-2,2.1-.3c1.2-.2,2.1-.4,2.1-.4,0,0-.5-.7-1.3-1.4-1.7-1.6-1.8-1.7-1.4-3.5.5-2.8.7-2.7-1.5-1.5l-1.9,1-2.1-1-2.1-1,.5,2.1Z"/>
    <path class="st4" d="M154.1,72.7c.3,1.1.2,1.3-.7,2.2l-1,1,1.3.2c1.2.2,1.4.3,1.8,1.3s.6,1.1.6,1,.4-.6.8-1.2c.5-.9.8-1.1,1.7-1.2,1.6-.2,1.6-.2.7-1-1-.9-1.2-1.4-.9-2.7l.2-1.1-1.3.5c-1.1.5-1.5.4-2.4,0-.6-.3-1.2-.5-1.2-.5,0,0,0,.6.1,1.3Z"/>
    <path class="st4" d="M67.9,110.4c.2.7,0,1.1-.5,1.6-.9.8-.8,1.1.3,1.2.5,0,1.1.4,1.5.9l.7.9.5-.9c.4-.7.7-.9,1.5-1,.5,0,1-.2,1-.2,0,0-.3-.4-.7-.9-.6-.6-.7-.9-.5-1.7.2-1.3.1-1.3-.9-.7-.8.5-1.1.5-1.7,0-1-.7-1.2-.5-1,.6Z"/>
    <path class="st4" d="M36.4,125.6c.4,1.8.2,2.3-.9,3.2-.5.5-1,.9-.9,1s.7.2,1.5.3c1.4.2,1.6.3,2.9,2.5.1.3.4,0,.9-1,.6-1.3.7-1.4,1.9-1.5,2-.2,2-.3.8-1.5l-1.1-1.1.2-1.4c.1-.8.2-1.5.2-1.6s-.6.2-1.3.6c-1.3.8-1.3.8-2.8,0l-1.5-.8.3,1.2Z"/>
    <path class="st4" d="M82.6,107.8c.1.7,0,1.2-.5,1.7-.8.8-.8,1,.3,1.1.5,0,1,.3,1.1.7.5,1.1,1,1.2,1.3.3.2-.6.5-.9,1.3-1,1.1-.2,1.1-.3.3-1.1-.5-.5-.6-.8-.4-1.5l.2-.9-.9.4c-.7.3-1.2.3-1.9-.1l-.9-.5.2,1Z"/>
    <path class="st4" d="M140.6,75.1c-.5,1-.7,1.1-2,1.5l-1.5.4,1.1.9,1.1.9v1.4c0,0-.2,1.4-.2,1.4l1.3-.7c1.1-.6,1.4-.6,2.5,0,1.4.7,1.6.6,1.2-.2-.6-1.4-.5-2.1.4-3,.5-.5.9-1,.8-1.1s-.7-.2-1.4-.3c-1.2-.1-1.4-.3-1.9-1.3-.3-.6-.7-1.1-.8-1.1s-.4.6-.7,1.2Z"/>
    <path class="st4" d="M89,90.8c0,.2,0,.7,0,1.1,0,.5-.2,1.1-.7,1.6l-.8.7,1.2.2c1,.1,1.2.4,1.6,1.2l.4,1,.4-1c.3-.8.6-1,1.7-1.2l1.2-.3-.8-.7c-.8-.6-.8-.8-.7-1.9l.2-1.3-.9.6c-.8.5-1.1.5-1.9,0-.6-.3-1-.3-1-.2Z"/>
    <path class="st4" d="M156.6,84.8c0,.2,0,.6.2,1s0,.9-.6,1.5l-.9.9,1.2.2c.9.1,1.2.3,1.5,1.2l.4,1,.6-1c.5-.8.8-1,1.7-1.2l1.1-.2-.8-.7c-.8-.6-.8-.8-.7-1.6.2-1.3,0-1.5-.8-1-.6.4-1,.4-1.8,0-.5-.2-1-.3-1.1-.2Z"/>
    <path class="st4" d="M53.5,127.3l.4,2.1-1.5,1.5c-.8.8-1.5,1.5-1.4,1.6s.9.3,1.8.4c2.2.2,2.6.6,3.5,2.6s.8,1.6.8,1.5.6-.9,1.1-1.9l.9-1.9,2.2-.3c2-.3,2.2-.3,1.8-.7-.2-.2-.9-.9-1.6-1.6l-1.2-1.2.3-2c.2-1.1.3-2.1.3-2.1s-1,.4-2,.9l-2,1-1.8-1c-1-.5-1.8-.9-1.9-.9s0,1,.2,2.2Z"/>
    <path class="st4" d="M57.8,141.7c.3,1.1.2,1.3-.7,2.2l-1,1,1.3.2c1.2.2,1.4.4,2,1.5l.6,1.2.6-1.2c.5-1.1.8-1.3,1.6-1.4,1.7-.2,1.7-.3.7-1.3-.9-.9-.9-1-.7-2.2l.2-1.3-1.3.6c-1.1.5-1.4.5-2.3,0-.5-.3-1.1-.6-1.2-.5s0,.6,0,1.3Z"/>
  </g>
  <g>
    <path class="st4" d="M240.4,79.2c-.5.5-1,.7-1.9.6h-1.2c0-.1.6.9.6.9.5.8.5,1.1,0,1.9s-.5,1.3.7.9c.7-.2,1,0,1.8.6l.9.8v-1.1c.2-1,.2-1.1,1.2-1.5l1-.4-1-.6c-.8-.5-1-.9-1.1-1.7v-1.1c-.1,0-.9.7-.9.7Z"/>
    <path class="st4" d="M323.5,114.5c-.8.8-1.6,1.5-1.9,1.5-.4,0-1.1,0-3.3-.6l-1-.2,1,1.9c.5,1,1,2,1,2,0,0-.4,1.1-1,2.1l-1,1.9,2.1-.3,2.1-.3,1.5,1.5c.8.8,1.5,1.5,1.6,1.5.1,0,.3-.9.5-2,.3-2.1.4-2.3,3.2-3.6l1.2-.5-2-1-2-1-.2-2.1c-.1-1.2-.3-2.2-.4-2.2,0,0-.8.6-1.5,1.4Z"/>
    <path class="st4" d="M295.5,85.7c-.6.7-1,.8-2.1.6l-1.3-.2.6,1.2c.5,1.1.5,1.3,0,2.2-.8,1.2-.7,1.3.8,1,1-.2,1.2-.1,1.9.7s.9.9,1,.9c.1,0,.3-.6.3-1.2.1-1.2.2-1.2,1.2-1.6,1.4-.6,1.5-.7.1-1.3-1-.4-1.1-.6-1.2-1.7,0-1.5-.3-1.6-1.3-.6Z"/>
    <path class="st4" d="M308.4,106.1c-.4.5-.8.6-1.6.5-.6,0-1.1-.1-1.2,0s.2.6.4,1.1c.4.8.4,1.1,0,1.9l-.6,1,1.2-.2c1-.1,1.3,0,1.7.5.8,1.1,1,1.1,1.1-.2.2-1.1.2-1.2,1.3-1.6l1.1-.5-1.1-.4c-.9-.4-1.1-.6-1.2-1.4-.1-1.3-.4-1.5-1.1-.7Z"/>
    <path class="st4" d="M252.4,73.4q-2.3,2.4-4.3,2c-1-.2-2-.3-2.2-.3-.2,0,.2.9.7,1.9.8,1.5.9,2,.6,2.6s-.7,1.3-1,2l-.6,1.3,2.1-.3c1.1-.2,2.2-.3,2.3-.2s.8.8,1.5,1.5,1.3,1.4,1.4,1.4.3-.7.4-1.7c.2-1,.4-2,.6-2.3s1.1-.8,2.1-1.3l1.9-.8-2.1-1.1c-1.1-.6-2-1.2-2-1.3,0-.1,0-1.1-.2-2.2l-.3-2-.8.8Z"/>
    <path class="st4" d="M295.9,99.4l-1.4,1.5-1.7-.2c-.9-.1-2-.3-2.3-.4-.5-.1-.5.2.4,1.8,1.1,2.1,1,2.6-.5,5l-.6,1,2.2-.3,2.2-.3,1.5,1.5c.8.8,1.5,1.5,1.6,1.5,0,0,.3-.8.4-1.8.3-2.3.4-2.4,2.1-3.2,2.6-1.1,2.6-1,.4-2.1l-1.9-1-.4-2.3-.4-2.3-1.5,1.6Z"/>
    <path class="st4" d="M305.2,122.4c-.7.8-1,.9-2.2.7l-1.4-.2.6,1.2c.5,1.1.5,1.3,0,2.2s-.6,1.1-.5,1.1.7,0,1.4,0c1.1,0,1.3,0,2,.7,1.1,1.2,1.1,1.2,1.2,0,.1-1.4.4-1.8,1.7-2.3l1-.4-1.2-.7c-1-.6-1.2-.9-1.3-1.9,0-.7-.2-1.2-.3-1.3,0,0-.5.3-1,.8Z"/>
    <path class="st4" d="M250.2,93.2c-.5.5-.9.7-1.6.5-1.2-.3-1.4,0-.8.9.3.5.3,1.1,0,1.8l-.4,1h1c.8-.2,1.2,0,1.7.5.4.4.7.7.7.7,0,0,.1-.5.3-1.1.2-.8.4-1.1,1.1-1.4,1.2-.5,1.2-.7,0-1.2-.9-.4-1-.6-1-1.3,0-1.2-.3-1.3-1.1-.5Z"/>
    <path class="st4" d="M219.6,76c-1.2,1.3-1.8,1.5-3.1,1.1-.7-.2-1.3-.3-1.3-.2s.2.7.6,1.4c.7,1.2.6,1.5-.4,3.8-.1.3.3.3,1.3.2,1.4-.2,1.6-.2,2.3.7,1.3,1.5,1.4,1.5,1.7-.2l.2-1.5,1.3-.6c.7-.3,1.3-.7,1.4-.8s-.5-.4-1.2-.8c-1.3-.6-1.4-.6-1.6-2.3l-.2-1.7-.8.9Z"/>
    <path class="st4" d="M263.9,102.1c-.5.5-1,.7-1.7.6-1.1-.2-1.3,0-.7.9.2.4.3,1,0,1.3-.6,1-.4,1.5.5,1.3.6-.2,1,0,1.6.5.9.8.9.8,1.1-.4,0-.7.3-.9,1-1.2l.9-.4-.9-.5c-.6-.4-.9-.8-1-1.6v-1.1c-.1,0-.9.7-.9.7Z"/>
    <path class="st4" d="M320.6,132.8c-1.1.2-1.3,0-2.4-.8l-1.2-1v1.4c-.1,0-.3,1.4-.3,1.4l-1.2.7-1.2.7,1.3.7c1.1.6,1.3.8,1.5,2,.3,1.6.4,1.7.9.9.8-1.3,1.5-1.6,2.7-1.4.7.2,1.3.2,1.4,0s-.2-.7-.6-1.3c-.6-1-.6-1.3,0-2.3.3-.6.5-1.2.4-1.3s-.7,0-1.4,0Z"/>
    <path class="st4" d="M283.1,92.8c-.2,0-.5.4-.8.7-.4.4-1,.5-1.6.4l-1.1-.2.5,1.1c.4.9.4,1.2-.1,2l-.6.9,1-.2c.8-.2,1.2,0,2,.7l1,.8v-1.1c.2-1,.2-1.1,1.3-1.7l1.1-.6-1-.4c-.8-.3-1-.6-1.2-1.5,0-.6-.3-1-.5-1Z"/>
    <path class="st4" d="M293.3,127c-.2,0-.5.4-.7.7s-.7.6-1.6.4l-1.2-.2.5,1.1c.4.8.4,1.2,0,1.9l-.6.9h1.1c.9-.2,1.3,0,2,.6l.8.8v-1.1c.2-1,.3-1.1,1-1.5,1.2-.6,1.3-.8.3-1.2-.7-.3-.9-.5-1-1.4-.1-.6-.3-1-.5-1Z"/>
    <path class="st4" d="M228,91l-1.5,1.5-2-.4c-1.1-.2-2.1-.3-2.1-.3s.3.9.7,1.7c1,1.9,1,2.5-.2,4.3s-.8,1.5-.8,1.6,1.1,0,2.2-.2l2-.3,1.5,1.6c1.4,1.5,1.5,1.6,1.6,1.1,0-.3.2-1.3.4-2.2l.3-1.7,1.9-.9c1-.5,1.9-.9,1.9-1s-.8-.6-1.9-1.2l-2-1.1-.2-2c-.1-1.1-.3-2-.3-2.1s-.8.6-1.6,1.4Z"/>
    <path class="st4" d="M218.6,102.7c-.7.8-1,.9-2.2.7l-1.4-.2.6,1.2c.5,1.1.5,1.3,0,2.4l-.7,1.2,1.4-.2c1.2-.2,1.5,0,2,.5,1.1,1.3,1.2,1.2,1.5-.2.2-1.2.3-1.3,1.4-1.8l1.2-.6-1.2-.8c-1-.6-1.2-.9-1.3-1.9,0-.6-.2-1.2-.3-1.3s-.6.3-1,.8Z"/>
  </g>
  <use width="43.6" height="43.6" transform="translate(-357 -73.4)" xlink:href="#_新規シンボル_24"/>
  <path class="st3" d="M335.6,60.8c-.3,1.8-.7,2.2-2,2.6-.7.2-1.2.5-1.2.6s.6.5,1.2.9c1.2.7,1.3.9,1.6,3.4,0,.3.4.2,1.2-.6,1.1-.9,1.2-1,2.3-.7,1.9.6,2,.5,1.3-1.1l-.6-1.4.8-1.2c.4-.7.8-1.3.8-1.4s-.7,0-1.5,0c-1.5.2-1.5.2-2.6-1.1l-1.1-1.3-.2,1.2Z"/>
  <path class="st3" d="M335.4,87.5l-.5,2.1-1.9.8c-1.1.4-2,.8-2,.9s.7.6,1.5,1.1c1.9,1.1,2.2,1.5,2.2,3.7s0,1.7.2,1.7.9-.6,1.7-1.4l1.5-1.4,2.2.6c2,.5,2.1.5,2,0-.1-.3-.5-1.2-.8-2.1l-.6-1.6,1.1-1.7c.6-1,1.1-1.8,1.1-1.8s-1,0-2.2,0h-2.3c0,.1-1.2-1.5-1.2-1.5-.7-.9-1.3-1.6-1.4-1.6s-.4.9-.6,2.1Z"/>
  <g id="path16">
    <path class="st0" d="M288.8,84.5c-4,1.9-15.8,7.6-15.9,7.6-.1,0-9.3-5.3-14.5-8.3-2-1.2-3.7-2.2-3.8-2.2,0,0,.5,4.6,1.1,10.1.7,5.6,1.2,10.2,1.2,10.4,0,.2-1.1,1.3-5.1,5-2.8,2.6-6.4,5.8-7.9,7.3l-2.8,2.6,10.3,1.8c5.7,1,10.4,1.8,10.5,1.9,0,0,2.1,4.4,4.4,9.6,2.3,5.2,4.3,9.5,4.3,9.5,0,0,.5-.8,1-1.7.5-1,2.8-5.1,5.1-9.1l4.1-7.3,2.8-.3c5.4-.5,18-2,18.1-2.1,0,0-.7-.9-1.7-1.9-2.1-2.1-10-10.6-11.5-12.4l-1.1-1.3,2.1-10.3c1.2-5.7,2.1-10.3,2.1-10.3,0,0-1.4.6-3,1.4"/>
    <path class="st4" d="M288.8,84.5c-4,1.9-15.8,7.6-15.9,7.6-.1,0-9.3-5.3-14.5-8.3-2-1.2-3.7-2.2-3.8-2.2,0,0,.5,4.6,1.1,10.1.7,5.6,1.2,10.2,1.2,10.4,0,.2-1.1,1.3-5.1,5-2.8,2.6-6.4,5.8-7.9,7.3l-2.8,2.6,10.3,1.8c5.7,1,10.4,1.8,10.5,1.9,0,0,2.1,4.4,4.4,9.6,2.3,5.2,4.3,9.5,4.3,9.5,0,0,.5-.8,1-1.7.5-1,2.8-5.1,5.1-9.1l4.1-7.3,2.8-.3c5.4-.5,18-2,18.1-2.1,0,0-.7-.9-1.7-1.9-2.1-2.1-10-10.6-11.5-12.4l-1.1-1.3,2.1-10.3c1.2-5.7,2.1-10.3,2.1-10.3,0,0-1.4.6-3,1.4"/>
  </g>
  <g id="path18">
    <path class="st0" d="M202.1,8c-7.5,12.8-18.1,30.4-18.4,30.5-.2.2-24.1,1.7-34.6,2.2-7.7.4-10.3.6-10.3.7,0,0,.4.6,1,1.2,1.8,2,27.6,32.2,27.8,32.6.2.2-.2,1.9-2.6,11.6-3.1,12.5-7.2,29.2-7.8,31.6-.2.9-.4,1.6-.4,1.6,0,0,19.6-8.6,31.6-13.9l9.9-4.4,1,.6c.6.4,4.6,2.9,9.1,5.7,4.4,2.8,12.5,7.9,18,11.4,5.4,3.5,9.9,6.2,9.9,6.1,0,0-.3-3.6-.6-7.9-.4-4.2-1-12.5-1.4-18.3-.4-5.8-.9-12.3-1.1-14.4l-.3-3.7,6.9-5.8c3.8-3.2,11.5-9.6,17-14.2,5.5-4.6,10.2-8.5,10.4-8.7.2-.1.3-.3.2-.4,0,0-3.9-1-8.6-2.1-7.4-1.7-18.6-4.3-31.3-7.4l-3.8-.9-5.3-13.1c-2.9-7.2-6.7-16.6-8.4-20.9C208.5,3.6,207,0,206.9,0c0,0-2.2,3.6-4.8,8"/>
    <path class="st4" d="M202.1,8c-7.5,12.8-18.1,30.4-18.4,30.5-.2.2-24.1,1.7-34.6,2.2-7.7.4-10.3.6-10.3.7,0,0,.4.6,1,1.2,1.8,2,27.6,32.2,27.8,32.6.2.2-.2,1.9-2.6,11.6-3.1,12.5-7.2,29.2-7.8,31.6-.2.9-.4,1.6-.4,1.6,0,0,19.6-8.6,31.6-13.9l9.9-4.4,1,.6c.6.4,4.6,2.9,9.1,5.7,4.4,2.8,12.5,7.9,18,11.4,5.4,3.5,9.9,6.2,9.9,6.1,0,0-.3-3.6-.6-7.9-.4-4.2-1-12.5-1.4-18.3-.4-5.8-.9-12.3-1.1-14.4l-.3-3.7,6.9-5.8c3.8-3.2,11.5-9.6,17-14.2,5.5-4.6,10.2-8.5,10.4-8.7.2-.1.3-.3.2-.4,0,0-3.9-1-8.6-2.1-7.4-1.7-18.6-4.3-31.3-7.4l-3.8-.9-5.3-13.1c-2.9-7.2-6.7-16.6-8.4-20.9C208.5,3.6,207,0,206.9,0c0,0-2.2,3.6-4.8,8"/>
  </g>
  <g id="path20">
    <path class="st0" d="M125.8,83.4c-1.9,3.2-3.5,5.9-3.6,6-.1.1-5.4.5-11,.8-1.5,0-2.7.2-2.8.2,0,0,1.9,2.5,4.3,5.3l4.5,5.2-.9,3.8c-.5,2.1-1.3,5.2-1.7,6.9-.4,1.7-.8,3.1-.8,3.2,0,0,2.9-1.2,6.5-2.8l6.5-2.8,2.4,1.5c1.3.8,3.9,2.5,5.9,3.7,3.2,2,3.5,2.2,3.5,1.8,0-.2-.3-3.3-.5-6.9l-.5-6.5.6-.5c2.4-2,10.1-8.4,10.1-8.5,0,0-2.4-.6-5.4-1.3-3-.7-6.1-1.4-6.8-1.7l-1.4-.4-2.5-6.3c-1.4-3.5-2.6-6.4-2.7-6.4,0,0-1.7,2.5-3.6,5.7"/>
    <path class="st4" d="M125.8,83.4c-1.9,3.2-3.5,5.9-3.6,6-.1.1-5.4.5-11,.8-1.5,0-2.7.2-2.8.2,0,0,1.9,2.5,4.3,5.3l4.5,5.2-.9,3.8c-.5,2.1-1.3,5.2-1.7,6.9-.4,1.7-.8,3.1-.8,3.2,0,0,2.9-1.2,6.5-2.8l6.5-2.8,2.4,1.5c1.3.8,3.9,2.5,5.9,3.7,3.2,2,3.5,2.2,3.5,1.8,0-.2-.3-3.3-.5-6.9l-.5-6.5.6-.5c2.4-2,10.1-8.4,10.1-8.5,0,0-2.4-.6-5.4-1.3-3-.7-6.1-1.4-6.8-1.7l-1.4-.4-2.5-6.3c-1.4-3.5-2.6-6.4-2.7-6.4,0,0-1.7,2.5-3.6,5.7"/>
  </g>
  <g>
    <path class="st3" d="M125.5,118.5c0,.7,0,1.3-.1,1.4,0,0-.3,0-.6,0-.3,0-.9-.3-1.5-.4-1.2-.4-1-.1.5.4.6.2,1.2.5,1.3.6s-.2.6-.6,1.2c-1.3,1.9-1.2,1.9.8-.5l.4-.4.9,1.1c.5.6.9,1.1,1,1.1.1,0,0,0-.8-1.4-.3-.5-.6-1-.5-1.1,0,0,.7-.3,1.5-.6,1.7-.6,1.6-.7-.3-.2-.7.2-1.4.4-1.4.4,0,0,0-.5,0-1.1,0-1.6-.3-2-.3-.5Z"/>
    <circle class="st3" cx="237.5" cy="68" r=".7"/>
    <circle class="st3" cx="119.2" cy="109.1" r=".7"/>
    <circle class="st3" cx="225.2" cy="72.3" r=".5"/>
    <circle class="st3" cx="227.5" cy="44.3" r=".5"/>
    <circle class="st3" cx="141.3" cy="95.5" r=".5"/>
    <circle class="st3" cx="130.2" cy="105.1" r=".5"/>
    <circle class="st3" cx="132.3" cy="100.4" r=".5"/>
    <circle class="st3" cx="271.1" cy="111.1" r=".5"/>
    <circle class="st3" cx="249.8" cy="60.1" r=".5"/>
    <circle class="st3" cx="258.3" cy="54.5" r=".5"/>
    <circle class="st3" cx="181.6" cy="92.9" r=".5"/>
    <circle class="st3" cx="281.5" cy="99.9" r=".5"/>
    <circle class="st3" cx="176.2" cy="102.8" r=".9"/>
    <circle class="st3" cx="198.7" cy="80.7" r=".9"/>
    <circle class="st3" cx="219.4" cy="61.4" r=".9"/>
    <circle class="st3" cx="209.5" cy="97.2" r=".9"/>
    <circle class="st3" cx="270.8" cy="126.1" r=".9"/>
    <circle class="st3" cx="289.7" cy="114.1" r=".9"/>
    <use width="48.6" height="48.6" transform="translate(231.2 51.5) scale(.1)" xlink:href="#_新規シンボル_31"/>
    <use width="48.6" height="48.6" transform="translate(276.9 108.7) scale(.1)" xlink:href="#_新規シンボル_31"/>
    <use width="48.6" height="48.6" transform="translate(271.1 117.5) scale(0)" xlink:href="#_新規シンボル_31"/>
    <use width="48.6" height="48.6" transform="translate(217.7 99.3) scale(.1)" xlink:href="#_新規シンボル_31"/>
    <use width="48.6" height="48.6" transform="translate(223.5 80.6) scale(.1)" xlink:href="#_新規シンボル_31"/>
    <use width="48.6" height="48.6" transform="translate(158.9 102.7) rotate(-19.6) scale(.2)" xlink:href="#_新規シンボル_31"/>
    <use width="48.6" height="48.6" transform="translate(131.6 92.8) rotate(18.9) scale(0)" xlink:href="#_新規シンボル_31"/>
    <use width="48.6" height="48.6" transform="translate(119.9 101.1) scale(.1)" xlink:href="#_新規シンボル_31"/>
    <use width="54.6" height="54.6" transform="translate(206.3 70.8) scale(.3)" xlink:href="#_新規シンボル_32"/>
    <use width="54.6" height="54.6" transform="translate(242.3 43) scale(.3)" xlink:href="#_新規シンボル_32"/>
    <use width="54.6" height="54.6" transform="translate(254.7 109.8) rotate(-18.2) scale(.2)" xlink:href="#_新規シンボル_32"/>
    <use width="54.6" height="54.6" transform="translate(183.5 92.8) rotate(-23.5) scale(.2)" xlink:href="#_新規シンボル_32"/>
  </g>
</svg>