<?xml version="1.0" encoding="UTF-8"?>
<svg id="_レイヤー_2" data-name="レイヤー 2" xmlns="http://www.w3.org/2000/svg" viewBox="0 0 260.31 151.66">
  <defs>
    <style>
      .cls-1 {
        fill: #f095a8;
      }

      .cls-2 {
        fill: #f9d3e3;
      }
    </style>
  </defs>
  <g id="_レイヤー_1-2" data-name="レイヤー 1">
    <g>
      <g>
        <path class="cls-2" d="M59.81,99.42c1.33-1.25,2.72-2.45,4.13-3.61-6.98-7.95-13.52-20.91-16.81-33.59-5.59-21.51-.17-35.77,10.38-38.51,10.55-2.74,22.22,7.09,27.81,28.59,2.5,9.62,3.44,20.28,2.78,29.38,3.47-1.37,7.05-2.57,10.74-3.57-.27-10.88-1.8-22.43-4.59-33.13C85.61,11.67,67.52-3.55,51.19.7c-16.33,4.24-24.73,26.34-16.07,59.65,4.11,15.83,11.49,31.94,19.86,44.05,1.54-1.72,3.16-3.37,4.84-4.97Z"/>
        <path class="cls-1" d="M85.32,52.3c-5.59-21.51-17.26-31.33-27.81-28.59-10.55,2.74-15.97,17.01-10.38,38.51,3.29,12.68,9.83,25.64,16.81,33.59,7.12-5.87,15.26-10.61,24.16-14.13.66-9.1-.28-19.77-2.78-29.38Z"/>
      </g>
      <g>
        <path class="cls-2" d="M200.5,99.42c-1.33-1.25-2.72-2.45-4.13-3.61,6.98-7.95,13.52-20.91,16.81-33.59,5.59-21.51.17-35.77-10.38-38.51-10.55-2.74-22.22,7.09-27.81,28.59-2.5,9.62-3.44,20.28-2.78,29.38-3.47-1.37-7.05-2.57-10.74-3.57.27-10.88,1.8-22.43,4.59-33.13C174.71,11.67,192.79-3.55,209.12.7c16.33,4.24,24.73,26.34,16.07,59.65-4.11,15.83-11.49,31.94-19.86,44.05-1.54-1.72-3.16-3.37-4.84-4.97Z"/>
        <path class="cls-1" d="M174.99,52.3c5.59-21.51,17.26-31.33,27.81-28.59,10.55,2.74,15.97,17.01,10.38,38.51-3.29,12.68-9.83,25.64-16.81,33.59-7.12-5.87-15.26-10.61-24.16-14.13-.66-9.1.28-19.77,2.78-29.38Z"/>
      </g>
      <path class="cls-2" d="M260.11,149.17c-12.01-24.22-47.47-76.49-129.96-76.49S12.2,124.95.2,149.17c-.93,1.88,1.65,3.33,3.31,1.92,49.74-42.33,126.65-41.31,126.65-41.31,0,0,76.91-1.02,126.65,41.31,1.66,1.41,4.24-.04,3.31-1.92Z"/>
    </g>
  </g>
</svg>