<?xml version="1.0" encoding="UTF-8"?>
<svg id="_レイヤー_2" data-name="レイヤー 2" xmlns="http://www.w3.org/2000/svg" viewBox="0 0 260.31 83.23">
  <defs>
    <style>
      .cls-1 {
        fill: #a16c47;
      }

      .cls-2 {
        fill: #fadda5;
      }
    </style>
  </defs>
  <g id="_レイヤー_1-2" data-name="レイヤー 1">
    <g>
      <path class="cls-1" d="M107.58,9.86S56.74-17.36,17.95,18.65c-27.03,25.09-6.92,54.94-6.92,54.94L107.58,9.86Z"/>
      <path class="cls-1" d="M152.74,9.86s50.84-27.21,89.63,8.8c27.03,25.09,6.92,54.94,6.92,54.94L152.74,9.86Z"/>
      <path class="cls-2" d="M260.11,80.75C248.11,56.53,212.64,4.26,130.16,4.26S12.2,56.53.2,80.75c-.93,1.88,1.65,3.33,3.31,1.92,49.74-42.33,126.65-41.31,126.65-41.31,0,0,76.91-1.02,126.65,41.31,1.66,1.41,4.24-.04,3.31-1.92Z"/>
    </g>
  </g>
</svg>