<?xml version="1.0" encoding="UTF-8"?>
<svg id="svg2" xmlns="http://www.w3.org/2000/svg" version="1.1" xmlns:cc="http://creativecommons.org/ns#" xmlns:dc="http://purl.org/dc/elements/1.1/" xmlns:rdf="http://www.w3.org/1999/02/22-rdf-syntax-ns#" xmlns:svg="http://www.w3.org/2000/svg" viewBox="0 0 347.1 204.1">
  <!-- Generator: Adobe Illustrator 30.1.0, SVG Export Plug-In . SVG Version: 2.1.1 Build 136)  -->
  <defs>
    <style>
      .st0 {
        fill: #fff;
      }

      .st1 {
        fill: #f2b22b;
      }

      .st2 {
        fill: #efd82e;
      }
    </style>
  </defs>
  <g>
    <path class="st0" d="M37.7,116.5c1.6-4.8,3.6-9.1,4-9.5.8-.8,2.8-.8,10.3,1.2,5.2,1.2,9.5,2,9.5,2,0,0-3.6-2-8.7-3.6-5.2-2-9.5-3.6-9.5-4,0,0,.4-4.4,1.6-9.5,1.2-5.2,2-9.5,2-9.5,0,0-1.6,3.6-3.6,7.9s-3.6,8.7-3.6,9.5c-.4.8-2.8.4-9.1-.8-12.3-2.8-12.7-2.4-2.4,1.6,5.2,2,9.5,3.6,9.5,4,0,0-.4,4.8-1.6,9.9-1.2,5.2-2,9.5-2,9.5,0,0,1.6-3.6,3.6-7.9v-.8Z"/>
    <path class="st0" d="M297.6,122.9l2-4h4.4l4.8.4-4-1.2q-4-1.2-3.6-3.6c1.6-5.2,1.6-5.6,0-2q-2,3.6-6.7,3.2h-4.8l4,.8c4.4,1.2,4.4,1.6,2.8,6-1.6,4.4-.8,4.4,1.2,0v.4Z"/>
    <path class="st0" d="M321.5,103.8c1.6-4.8,3.2-9.1,3.6-10.3l.8-2,6.4,4c7.5,4.4,13.9,7.5,12.7,6.4-.4-.4-4.4-3.6-8.7-6.4-4.4-3.2-7.9-6-8.3-6.4s3.2-4.4,7.9-8.3c8.7-7.9,7.9-7.5-3.6.8l-7.1,5.2-2-4c-.8-2.4-3.2-7.1-5.2-10.7-2.4-5-2.4-3.3,0,5.2,1.6,5.2,2.8,9.5,2.8,9.9s-4,1.2-8.7,1.6c-16.7,1.6-15.1,2.4,4.4,2,3.2,0,5.2,0,5.2.8s-1.2,5.2-2,10.7c-1.2,5.2-2,9.9-1.6,9.9s1.6-3.6,2.8-7.9l.8-.4Z"/>
    <path class="st0" d="M128.2,30.1l3.2-2.4,3.2,2.8,3.2,2.8-2.8-3.2-2.8-3.2,2.8-3.2c3.2-3.6,4-5.2.8-2-4.4,4.4-4.8,4.4-7.5,1.6-1.6-1.6-2.8-2.4-3.2-2,0,0,.8,1.6,2.4,3.2l3.2,2.8-3.2,3.2q-3.6,4,.8.8v-1.2Z"/>
    <path class="st0" d="M68.3,89.3c.8-6.4,2-11.9,2.4-12.3.4-.8,3.6.8,11.1,5.2,5.6,3.6,10.3,6,10.7,6s-4-3.6-9.1-7.5-9.5-7.5-9.5-8.3,4.8-3.6,10.3-6.7c6-3.2,10.3-6,10.3-6,0,0-5.2,1.6-11.5,4.4-8.7,3.6-11.5,4.4-11.9,3.6,0-.8-.4-3.6,0-6.7,0-6.4,0-18.3-.4-15.5,0,.8-.8,6.4-2,12.3-.8,5.6-1.6,10.3-2,10.7,0,0-5.2-2.4-10.7-5.6-5.6-3.6-10.3-6-10.7-6.4s4,3.6,9.1,7.5c5.2,4.4,9.9,7.9,9.9,8.3,0,0-4.4,2.8-9.9,6-12.7,7.1-13.5,7.9-3.6,4,12.7-5.2,15.1-6,15.5-5.6s.4,6,.4,12.3v12.3c0,.4.8-4.8,1.6-11.1v-.8Z"/>
    <path class="st0" d="M290.6,61.9c0-1.2-1.2-4.4-2-7.1s-1.6-4.8-1.2-5.2c0,0,3.6-.8,7.9-1.2l7.5-.8h-15.9l.8-3.6c2.4-11.5,2.4-11.9,0-5.6s-2.4,6.4-2.8,7.1c0,.8-2,0-6.4-2.4-7.9-4.8-8.3-4.4-1.6.8,3.2,2.4,5.6,4.8,5.6,5.2s-2.4,2.8-5.6,5.6l-5.6,4.8,6-4c3.6-2.4,6.4-4,6.7-4s1.6,2.8,3.2,6.4c2.4,6.4,4,8.7,2.8,4.4l.4-.4Z"/>
    <path class="st0" d="M190.2,71.4c4-6,7.1-10.3,7.1-9.9s3.6,5.2,7.1,10.3,6.7,9.5,6.7,9.5c0,0-2-4.8-5.2-10.3-3.2-6-5.6-11.1-5.6-11.5s4.8-1.2,9.9-1.6c15.1-1.2,15.9-2,2-2.4h-12.7c0-.4.8-2.4.8-2.4.4-1.2,2.8-6.4,5.2-11.5s4.4-9.5,4.4-9.9-3.2,4-6.7,9.5c-3.6,5.6-6.7,9.9-7.1,9.9s-2.8-2.8-5.2-6c-9.1-13.5-10.3-14.3-4.4-2.8,2.8,6,5.6,11.1,5.2,11.5s-4.8,1.2-10.3,1.6c-15.9,1.2-16.3,2-2,2.4,7.1,0,13.1.8,13.1,1.2s-2.4,5.6-5.2,11.5c-2.8,6-5.2,11.1-4.8,11.1,0,0,3.2-4.4,7.1-10.3h.4Z"/>
    <path class="st0" d="M235,22.2l-1.2-4.4,3.6-1.2c4.4-1.6,4-2.4-.4-1.2-2,.8-3.6,1.2-3.6,1.2,0,0-.8-1.6-1.6-3.6-1.6-4.4-2.4-4.4-1.2,0,.8,2,1.2,3.6,1.2,3.6,0,0-1.6.8-3.6,1.6-4.4,1.6-4.4,2.4,0,.8,2-.4,3.6-.8,3.6-.8,0,0,.8,2,2,4.4,2.4,5.2,2.8,4.8,1.2-.4Z"/>
    <path class="st0" d="M78.2,56.3c0-1.2-.4-3.2-.8-4,0-1.6,0-2,3.6-3.2,5.2-1.6,5.2-2.4-.4-.8l-4,.8-1.6-4.4c-.8-2.4-1.6-3.6-1.2-2.8,1.2,6.7,1.2,7.5-2.4,8.7-2.4.8-2.8,1.2-1.2.8,1.2,0,2.8-.4,3.6-.8s2,.8,2.8,3.6c.8,2,1.2,3.2,1.2,1.6l.4.4Z"/>
    <path class="st0" d="M278.3,98.2c1.6-4.8,3.6-9.1,4-9.5,0-.4,4,0,9.9,1.2,5.2,1.2,9.5,2,9.5,2,0,0-3.6-2-8.7-3.6-5.2-2-9.1-3.6-9.5-3.6,0,0,.8-4,1.6-8.7,1.2-4.8,2-9.1,1.6-9.5,0-.4-1.6,2.8-3.2,7.5-1.6,4.8-3.6,8.7-4,9.1,0,0-4.4,0-9.1-1.2-12.3-2.8-12.7-2.8-2,1.6,5.2,2,9.5,4,9.9,4.8s-.8,5.2-2,9.9-2,9.1-1.6,9.1,1.6-3.6,3.6-8.3v-.8Z"/>
    <path class="st0" d="M32.4,67.1c1.2-2.8,1.6-3.2,5.2-2.8h4l-3.6-1.2c-2.8-.8-3.6-1.6-3.2-2.4,0-.8.8-2.4,1.2-4,.4-2,0-1.6-1.6,1.2l-2,4h-4.8c0-.4-4.4-1.2-4.4-1.2l4,1.2,4,1.2-.8,3.6c-1.2,4,0,4.4,1.2.4h.8Z"/>
  </g>
  <g id="g10">
    <g id="g12">
      <path id="path14" class="st2" d="M346.8,200.8c-16-32.3-63.3-102-173.3-102S16.3,168.5.3,200.8c-1.2,2.5,2.2,4.4,4.4,2.6,66.3-56.4,168.9-55.1,168.9-55.1,0,0,102.5-1.4,168.9,55.1,2.2,1.9,5.6,0,4.4-2.6"/>
      <path id="path16" class="st1" d="M88.3,46.3c.5.2,1.5.6,2.3.8,1.1.4,1.4.5,1.5.8,0,.2.2,1.7.4,3.3,3.4,27.8,7,55.1,7.8,59.8,20.6-7.5,44.8-12.1,73.3-12.1s52.7,4.7,73.3,12.2c.7-3.6,3.2-23.3,7.1-54.5.6-4.6,1.1-8.4,1.1-8.6s.4-.4,1.5-.8c3.2-1.1,4.7-1.9,6.1-3.4,3.4-3.5,4.4-8.6,2.7-13.1-1.5-4-4.3-6.5-8.3-7.6-1-.3-1.6-.3-3.6-.3s-2.6,0-3.6.3c-4,1.1-6.7,3.6-8.3,7.5-1.6,4.2-1,8.1,2,12.4.5.8,1,1.5.9,1.6,0,.6-3.3,7.7-8.5,18.4-4.3,9-12.8,26.3-12.9,26.4v-.4c0-.3-.3-5.1-.6-10.6-.3-5.6-.8-13.6-1-17.8-1.6-29.3-1.6-27.8-1.3-28.2,0-.2.8-.7,1.5-1.1,2.6-1.5,4.2-3.2,5.5-5.7,1-1.9,1.2-2.7,1.3-4.7.1-2.2,0-3.4-.8-5-.8-1.9-1.6-3.2-3-4.6-4.4-4.4-10.6-5-15.7-1.6-2.3,1.6-4.2,3.9-5.1,6.3-.4,1-.7,3-.7,4,0,3.5,1.9,7.6,4.6,9.7.5.4.9.8.9.9s-1.6,4.8-7.8,22.9c-2.6,7.6-8.2,23.5-9.3,26.8-.8,2.1-1.4,3.9-1.4,4.1,0,.3-.3.4-.3,0s-.3-1.9-.7-3.9c-.9-4.5-4.1-23.1-7.5-42.5l-2.4-14,1.2-.8c4-2.7,5.9-6.3,5.9-11s-.2-3-1.1-4.8c-1.7-3.6-4.7-6.1-8.3-7.1-1.2-.3-3.9-.5-5.1-.3-3.6.7-7.1,3.1-9,6.2-1.8,3-2.2,7.2-.9,10.8.9,2.3,2.7,4.6,5.2,6.2l1.2.8-2.4,14c-3.4,19.4-6.7,38-7.5,42.5-.4,2.1-.7,3.9-.7,3.9,0,.2-.2.2-.3,0,0,0-.7-2-1.4-4.1-1.1-3.2-6.7-19.1-9.3-26.8-6.3-18.2-7.8-22.8-7.8-22.9s.4-.5.9-.9c1.5-1.2,2.9-3.3,3.8-5.6.5-1.4.8-3.3.6-5.5-.1-1.7-.3-2.2-1.3-4.1-1.2-2.4-2.9-4.1-5.3-5.5-4.8-2.7-10.3-2-14.5,1.9-2.7,2.6-4.2,5.9-4,9.5,0,2,.4,3.1,1.3,4.9,1.2,2.5,2.8,4.2,5.5,5.8.7.4,1.4.9,1.5,1.1.2.4.2,1.6-.4,11.6-1.2,21.3-1.4,24.8-2,34.4-.3,5.6-.6,10.3-.6,10.6s0,.5,0,.4c0,0-8.5-17.4-12.9-26.4-5.1-10.7-8.4-17.8-8.5-18.4,0,0,.4-.9.9-1.6,3-4.3,3.6-8.2,2-12.4-1.5-3.9-4.3-6.5-8.3-7.5-1-.3-1.6-.3-3.6-.3s-2.6,0-3.6.3c-4,1.1-6.7,3.6-8.3,7.6-2.4,6.1.5,13.2,6.4,15.6"/>
      <path class="st1" d="M100.3,111l1.8,14.8h142.5l2.2-14.7s-28-18.9-73.8-18.9-72.8,18.8-72.8,18.8Z"/>
    </g>
  </g>
  <g>
    <path class="st0" d="M89.8,29.2c.2,2.2-.3,3.7-1.4,4.6-.8.7-1.6,1.3-1.7,1.5,0,0,.8.5,1.9.8,1.7.4,2.1.6,2.3,1.3s.5,1.4.8,2.1l.6,1.3,1.1-1.7c.6-1,1.2-1.8,1.4-1.9s1.1,0,2.1,0,1.9,0,2,0-.3-.7-1-1.5-1.3-1.7-1.3-2,0-1.4.5-2.4l.6-1.9-2.2.8c-1.2.5-2.2.7-2.3.6,0-.1-.8-.7-1.8-1.3l-1.7-1.1v1.1-.2Z"/>
    <path class="st0" d="M129.4,13.3c-.5,2.1-1.4,3.4-2.7,3.9-1,.4-1.9.7-2.1.8,0,0,.6.7,1.6,1.3,1.5.9,1.8,1.3,1.8,1.9v2.2l.2,1.4,1.6-1.3c.9-.7,1.8-1.3,1.9-1.3s1.1.3,2,.5,1.8.5,1.9.5,0-.8-.5-1.7c-.4-1-.7-2-.6-2.3s.5-1.3,1.2-2.1l1.2-1.6h-2.4c-1.3.1-2.4,0-2.4,0,0-.1-.6-.9-1.3-1.8l-1.3-1.6-.3,1.1h.2Z"/>
    <path class="st0" d="M172.6,4.8c-.8,2.1-1.9,3.2-3.2,3.5-1,.2-2,.5-2.1.6-.1,0,.5.8,1.4,1.5,1.3,1.1,1.6,1.5,1.5,2.1s-.2,1.5-.2,2.2v1.4l1.8-1.1c1-.6,1.9-1.1,2.1-1.1s1,.4,1.9.8,1.7.8,1.8.8,0-.8-.3-1.8c-.2-1-.4-2-.3-2.4s.7-1.2,1.5-2l1.4-1.5-2.4-.2c-1.3,0-2.3-.3-2.3-.4s-.5-1-1-1.9l-1.1-1.8-.4,1v.3Z"/>
    <path class="st0" d="M216,13.2c-1.3,1.8-2.6,2.7-3.9,2.7h-2.2c-.2,0,.3.9,1,1.8,1.1,1.4,1.2,1.8,1,2.4s-.5,1.4-.7,2.1l-.4,1.4,2-.6c1.1-.4,2.1-.6,2.3-.6s.9.6,1.7,1.2,1.5,1.1,1.6,1.2.2-.8.1-1.8c0-1,0-2.1.2-2.4s1-1,1.9-1.6l1.7-1.1-2.3-.8c-1.2-.4-2.2-.9-2.2-.9,0-.1-.2-1.1-.6-2.1l-.7-2-.6.9v.2Z"/>
    <path class="st0" d="M255.6,28.5c-1.5,1.5-3,2.2-4.4,1.9-1-.2-2-.4-2.2-.3-.2,0,.1.9.7,2,.8,1.6.9,2,.5,2.6s-.7,1.3-1.1,2l-.6,1.3,2.1-.3c1.2-.2,2.2-.2,2.3,0s.8.8,1.4,1.5,1.2,1.4,1.3,1.4.3-.7.5-1.7c.2-1,.5-2,.6-2.3s1.1-.8,2.1-1.2l1.9-.8-2.1-1.2c-1.1-.6-2-1.3-1.9-1.3,0-.1,0-1.1-.2-2.2l-.3-2-.8.8h.2Z"/>
  </g>
  <path class="st0" d="M311,168.2c-24.9-15.6-68.9-34.2-137.4-34.2s-112.3,18.4-137,33.9c-18.8,11.8-29.7,23.5-34.6,29.7-.6,1.1-1.1,2.2-1.6,3.2-1,2,1.1,3.7,3.1,3.2,2.4-3.4,13.2-17.9,36.2-32.1,24.1-15,67-33,134.1-33s110.1,18.1,134.4,33.3c22,13.7,33,27.6,36.1,31.9,1.9.3,3.7-1.3,2.8-3.3h-.1c-.6-1.3-1.3-2.6-2-3.9-5.4-6.6-16.1-17.6-33.8-28.7Z"/>
</svg>