<?xml version="1.0" encoding="UTF-8"?>
<svg id="_レイヤー_2" data-name="レイヤー 2" xmlns="http://www.w3.org/2000/svg" viewBox="0 0 260.31 113.59">
  <defs>
    <style>
      .cls-1 {
        fill: #76c1ec;
      }

      .cls-2 {
        fill: #f8cfe1;
      }
    </style>
  </defs>
  <g id="_レイヤー_1-2" data-name="レイヤー 1">
    <g>
      <g>
        <path class="cls-1" d="M35.96,67.8c-10.72-4.3-18.02-15.06-17.33-27.24.85-15.26,13.92-26.94,29.18-26.09,15.26.85,26.94,13.92,26.09,29.18-.06,1.04-.18,2.06-.35,3.06,4.8-1.62,9.73-2.99,14.81-4.05C88.67,20.23,71.23,1.33,48.61.07,25.39-1.23,5.52,16.54,4.22,39.75c-.92,16.35,7.64,31.04,20.88,38.75,3.36-3.81,6.98-7.39,10.86-10.71Z"/>
        <path class="cls-2" d="M47.8,14.47c-15.26-.85-28.33,10.83-29.18,26.09-.68,12.17,6.61,22.94,17.33,27.24.21-.18.42-.37.64-.55,10.68-9,23.2-15.89,36.95-20.53.17-1,.29-2.02.35-3.06.85-15.26-10.83-28.33-26.09-29.18Z"/>
      </g>
      <g>
        <path class="cls-1" d="M224.35,67.8c10.72-4.3,18.02-15.06,17.33-27.24-.85-15.26-13.92-26.94-29.18-26.09-15.26.85-26.94,13.92-26.09,29.18.06,1.04.18,2.06.35,3.06-4.8-1.62-9.73-2.99-14.81-4.05-.32-22.44,17.12-41.34,39.74-42.6,23.22-1.3,43.09,16.47,44.39,39.69.92,16.35-7.64,31.04-20.88,38.75-3.36-3.81-6.98-7.39-10.86-10.71Z"/>
        <path class="cls-2" d="M212.51,14.47c15.26-.85,28.33,10.83,29.18,26.09.68,12.17-6.61,22.94-17.33,27.24-.21-.18-.42-.37-.64-.55-10.68-9-23.2-15.89-36.95-20.53-.17-1-.29-2.02-.35-3.06-.85-15.26,10.83-28.33,26.09-29.18Z"/>
      </g>
      <path class="cls-1" d="M260.11,111.11c-12.01-24.22-47.47-76.49-129.96-76.49S12.2,86.89.2,111.11c-.93,1.88,1.65,3.33,3.31,1.92,49.74-42.33,126.65-41.31,126.65-41.31,0,0,76.91-1.02,126.65,41.31,1.66,1.41,4.24-.04,3.31-1.92Z"/>
    </g>
  </g>
</svg>