<?xml version="1.0" encoding="UTF-8"?>
<svg id="_レイヤー_2" data-name="レイヤー 2" xmlns="http://www.w3.org/2000/svg" viewBox="0 0 260.31 114.71">
  <defs>
    <style>
      .cls-1 {
        fill: #f5bf2d;
      }

      .cls-2 {
        fill: #50462a;
      }

      .cls-3 {
        fill: #fef2f2;
      }
    </style>
  </defs>
  <g id="_レイヤー_1-2" data-name="レイヤー 1">
    <g>
      <g>
        <path class="cls-1" d="M79.16,11.38l-41.03,17.58c-2.02,18.62,1.04,38.92,1.04,38.92l34.6-12.08,34.6-12.08s-13.41-19.4-29.2-32.36Z"/>
        <path class="cls-2" d="M54.42,0c-1.9.06-3.73.7-5.25,1.86-6.74,5.16-9.82,15.82-11.04,27.09l41.03-17.58C71.04,4.71,62.3-.25,54.42,0Z"/>
        <path class="cls-3" d="M54.61,16.27c-13.43,11.7-7.01,53.26-7.01,53.26l8.14-4.85c12.31-7.34,26.04-12.01,40.28-13.69l7.09-.83S78.96,14.66,60.52,14.17c-2.16-.06-4.28.68-5.91,2.09Z"/>
      </g>
      <g>
        <path class="cls-1" d="M181.15,11.38l41.03,17.58c2.02,18.62-1.04,38.92-1.04,38.92l-34.6-12.08-34.6-12.08s13.41-19.4,29.2-32.36Z"/>
        <path class="cls-2" d="M205.89,0c1.9.06,3.73.7,5.25,1.86,6.74,5.16,9.82,15.82,11.04,27.09l-41.03-17.58C189.27,4.71,198.01-.25,205.89,0Z"/>
        <path class="cls-3" d="M205.7,16.27c13.43,11.7,7.01,53.26,7.01,53.26l-8.14-4.85c-12.31-7.34-26.04-12.01-40.28-13.69l-7.09-.83s24.14-35.49,42.59-35.98c2.16-.06,4.28.68,5.91,2.09Z"/>
      </g>
      <path class="cls-1" d="M260.11,112.23c-12.01-24.22-47.47-76.49-129.96-76.49S12.2,88.01.2,112.23c-.93,1.88,1.65,3.33,3.31,1.92,49.74-42.33,126.65-41.31,126.65-41.31,0,0,76.91-1.02,126.65,41.31,1.66,1.41,4.24-.04,3.31-1.92Z"/>
    </g>
  </g>
</svg>