<?xml version="1.0" encoding="UTF-8"?>
<svg id="_レイヤー_2" data-name="レイヤー 2" xmlns="http://www.w3.org/2000/svg" viewBox="0 0 260.31 137.6">
  <defs>
    <style>
      .cls-1 {
        fill: #f092a7;
      }

      .cls-2 {
        fill: #f3e100;
      }

      .cls-3 {
        fill: #7b6c2a;
      }

      .cls-4 {
        fill: #614820;
      }
    </style>
  </defs>
  <g id="_レイヤー_1-2" data-name="レイヤー 1">
    <g>
      <g>
        <path class="cls-3" d="M101.52,27.44l5.12,36.72c.21,1.49-.67,2.93-2.11,3.39,0,0-.02,0-.03,0-.09.03-.17.06-.26.08-1.66.53-3.44-.39-3.95-2.05l-10.95-35.91s4.65-6.34,12.18-2.24Z"/>
        <path class="cls-2" d="M84.72,79.92c-3.14-9.08-8.61-19.61-18.05-26.52-12.49-9.14-28.92-9.73-39.23-8.96-5.54.42-9.39,5.69-8.11,11.09,2.38,10.06,7.93,25.54,20.42,34.68,5.77,4.22,12.38,6.62,18.83,7.9l26.15-18.2Z"/>
        <path class="cls-1" d="M43.34,85.29c6.49,4.74,14.42,6.35,21.18,6.67,8.22.4,14.18-7.75,11.31-15.46-2.36-6.34-6.29-13.42-12.77-18.17-9.15-6.69-21.18-7.13-28.73-6.56-4.07.31-6.88,4.15-5.94,8.12,1.74,7.37,5.8,18.71,14.95,25.4Z"/>
        <circle class="cls-4" cx="92.12" cy="15.45" r="15.45"/>
      </g>
      <g>
        <path class="cls-3" d="M158.79,27.44l-5.12,36.72c-.21,1.49.67,2.93,2.11,3.39,0,0,.02,0,.03,0,.09.03.17.06.26.08,1.66.53,3.44-.39,3.95-2.05l10.95-35.91s-4.65-6.34-12.18-2.24Z"/>
        <path class="cls-2" d="M175.59,79.92c3.14-9.08,8.61-19.61,18.05-26.52,12.49-9.14,28.92-9.73,39.23-8.96,5.54.42,9.39,5.69,8.11,11.09-2.38,10.06-7.93,25.54-20.42,34.68-5.77,4.22-12.38,6.62-18.83,7.9l-26.15-18.2Z"/>
        <path class="cls-1" d="M216.97,85.29c-6.49,4.74-14.42,6.35-21.18,6.67-8.22.4-14.18-7.75-11.31-15.46,2.36-6.34,6.29-13.42,12.77-18.17,9.15-6.69,21.18-7.13,28.73-6.56,4.07.31,6.88,4.15,5.94,8.12-1.74,7.37-5.8,18.71-14.95,25.4Z"/>
        <circle class="cls-4" cx="168.19" cy="15.45" r="15.45"/>
      </g>
      <path class="cls-2" d="M260.11,135.12c-12.01-24.22-47.47-76.49-129.96-76.49S12.2,110.9.2,135.12c-.93,1.88,1.65,3.33,3.31,1.92,49.74-42.33,126.65-41.31,126.65-41.31,0,0,76.91-1.02,126.65,41.31,1.66,1.41,4.24-.04,3.31-1.92Z"/>
    </g>
  </g>
</svg>