<?xml version="1.0" encoding="UTF-8" standalone="no"?>
<svg
   xmlns:dc="http://purl.org/dc/elements/1.1/"
   xmlns:cc="http://creativecommons.org/ns#"
   xmlns:rdf="http://www.w3.org/1999/02/22-rdf-syntax-ns#"
   xmlns:svg="http://www.w3.org/2000/svg"
   xmlns="http://www.w3.org/2000/svg"
   viewBox="0 0 347.07999 197.18668"
   height="197.18668"
   width="347.07999"
   xml:space="preserve"
   id="svg2"
   version="1.1"><metadata
     id="metadata8"><rdf:RDF><cc:Work
         rdf:about=""><dc:format>image/svg+xml</dc:format><dc:type
           rdf:resource="http://purl.org/dc/dcmitype/StillImage" /></cc:Work></rdf:RDF></metadata><defs
     id="defs6" /><g
     transform="matrix(1.3333333,0,0,-1.3333333,0,197.18667)"
     id="g10"><g
       transform="scale(0.1)"
       id="g12"><path
         id="path14"
         style="fill:#fdf9e6;fill-opacity:1;fill-rule:nonzero;stroke:none"
         d="M 2601.14,24.8398 C 2481.07,267.051 2126.41,789.742 1301.56,789.742 476.703,789.742 122.039,267.051 1.96875,24.8398 -7.33594,6.05859 18.4609,-8.46094 35.0273,5.64063 532.473,428.949 1301.56,418.75 1301.56,418.75 c 0,0 769.08,10.199 1266.52,-413.10937 16.57,-14.10157 42.37,0.41796 33.06,19.19917" /><path
         id="path16"
         style="fill:#f2b22b;fill-opacity:1;fill-rule:nonzero;stroke:none"
         d="m 2166.12,845.156 c -29.69,-14.504 -118.55,-57.039 -119.24,-57.133 -0.78,-0.187 -70.05,39.887 -108.43,62.348 -15.15,9.098 -27.88,16.324 -28.37,16.426 -0.39,0.004 3.44,-34.188 8.38,-75.805 4.94,-41.812 9.16,-76.789 9.24,-78.058 0.09,-1.661 -8.37,-9.989 -37.96,-37.18 -21.04,-19.16 -47.78,-43.738 -59.39,-54.383 l -21.23,-19.551 77.58,-13.496 c 42.69,-7.363 78.17,-13.695 78.95,-14.09 0.68,-0.3 15.75,-32.722 33.2,-71.902 17.46,-39.371 31.94,-71.402 32.23,-71.5 0.2,-0.012 3.66,5.918 7.62,13.109 3.96,7.188 21.09,37.997 38.02,68.219 l 30.79,55.098 21.29,2.172 c 40.15,4.078 135.3,14.843 135.89,15.422 0.3,0.293 -5.32,6.582 -12.67,14.058 -15.79,16.035 -74.82,79.551 -86.43,92.918 l -8.22,9.531 15.93,77.079 c 8.73,42.484 15.74,77.273 15.55,77.472 -0.1,0.098 -10.39,-4.801 -22.73,-10.754" /><path
         id="path18"
         style="fill:#f2b22b;fill-opacity:1;fill-rule:nonzero;stroke:none"
         d="m 1516.11,1419.18 c -56.31,-95.65 -135.66,-227.79 -137.75,-229.04 -1.8,-1.18 -180.9,-12.53 -259.74,-16.59 -57.71,-2.83 -77.03,-4.14 -77.06,-4.98 -0.09,-0.4 3.26,-4.63 7.49,-9.33 13.31,-15.2 206.78,-241.818 208.41,-244.135 1.31,-1.828 -1.46,-14.363 -19.39,-87.039 -23,-93.472 -54.15,-219.086 -58.81,-237.285 -1.8,-6.535 -2.9,-11.804 -2.63,-11.859 0.67,-0.145 147.3,64.144 237.36,104.199 l 74.51,33.164 7.59,-4.836 c 4.23,-2.719 34.74,-21.957 68,-42.898 33.24,-21.078 93.86,-59.465 134.82,-85.406 40.82,-25.915 74.44,-46.508 74.55,-45.965 0.14,0.672 -1.94,27.058 -4.42,58.89 -2.65,31.727 -7.46,93.52 -10.7,137.215 -3.24,43.695 -7.04,92.16 -8.3,107.656 l -2.31,27.985 51.98,43.39 c 28.68,23.743 85.98,71.657 127.4,106.404 41.42,34.74 76.48,64.06 77.85,65.18 1.33,0.99 2.18,2.37 1.76,3.02 -0.43,0.65 -29.41,7.72 -64.28,15.6 -55.62,12.52 -139.33,32.34 -234.48,55.41 l -28.57,6.98 -39.66,98.02 c -21.82,53.94 -50.18,124.48 -63.27,156.84 -12.96,32.34 -24,59.05 -24.4,59.14 -0.41,0.09 -16.63,-26.83 -35.95,-59.73" /><path
         id="path20"
         style="fill:#f2b22b;fill-opacity:1;fill-rule:nonzero;stroke:none"
         d="m 943.254,853.629 c -14.359,-24.066 -26.516,-44.363 -27.031,-44.82 -0.934,-1.075 -40.59,-3.891 -82.352,-5.989 -10.969,-0.519 -20.453,-1.351 -21.242,-1.75 -0.652,-0.425 13.902,-18.429 32.351,-40.07 l 33.497,-39.324 -6.899,-28.172 c -3.828,-15.555 -9.57,-38.891 -12.969,-51.715 -3.261,-12.855 -5.933,-23.578 -5.828,-23.742 0.106,-0.164 21.961,9.215 48.68,20.953 l 48.469,21.281 17.816,-11.211 c 9.715,-6.129 29.625,-18.769 44.214,-27.894 24.03,-15.199 26.56,-16.574 26.42,-13.867 -0.06,1.707 -1.93,25.086 -3.92,51.879 l -3.87,48.761 4.77,3.934 c 18.26,15.07 75.48,63.285 75.53,63.555 0.06,0.269 -18.17,4.8 -40.48,10.046 -22.45,5.274 -45.4,10.793 -51.1,12.555 l -10.36,3.02 -19.024,47.148 c -10.637,25.926 -19.473,47.664 -19.903,48.32 -0.289,0.625 -12.382,-18.699 -26.769,-42.898" /></g></g></svg>