<?xml version="1.0" encoding="UTF-8"?>
<svg id="_レイヤー_2" data-name="レイヤー 2" xmlns="http://www.w3.org/2000/svg" viewBox="0 0 260.31 105.28">
  <defs>
    <style>
      .cls-1 {
        fill: #fffbee;
      }

      .cls-2 {
        fill: #f092a7;
      }

      .cls-3 {
        fill: #4c4c4c;
      }

      .cls-4 {
        fill: #f5e328;
      }
    </style>
  </defs>
  <g id="_レイヤー_1-2" data-name="レイヤー 1">
    <g>
      <path class="cls-4" d="M109.6,30.72s-6.51-16.02-2.37-27.56c.69-1.94-1.24-3.8-3.11-2.96-7.48,3.38-19.25,12.65-15.63,37.16l21.11-6.65Z"/>
      <path class="cls-3" d="M47.6,61.25c6.63-.12,11.65-5.83,17.3-8.32,8.28-3.66,16.48-4.98,21.28-9.26,4.24-3.78,4.11-10.43-.26-14.05-8.33-6.89-22.87-16.43-39.21-16.13-16.21.3-30.28,10.22-38.38,17.41-4.35,3.86-4.22,10.7.27,14.39,8.36,6.88,22.8,16.27,39.01,15.96Z"/>
      <path class="cls-2" d="M49.1,57.3c11.96-.22,22.34-7.6,28.25-12.87,3.1-2.77,3.01-7.64-.19-10.29-6.1-5.05-16.75-12.04-28.71-11.81-11.87.22-22.18,7.49-28.11,12.75-3.19,2.83-3.09,7.83.2,10.54,6.13,5.04,16.7,11.91,28.57,11.69Z"/>
      <path class="cls-4" d="M150.71,30.72s6.51-16.02,2.37-27.56c-.69-1.94,1.24-3.8,3.11-2.96,7.48,3.38,19.25,12.65,15.63,37.16l-21.11-6.65Z"/>
      <path class="cls-3" d="M212.71,61.25c-6.63-.12-11.65-5.83-17.3-8.32-8.28-3.66-16.48-4.98-21.28-9.26-4.24-3.78-4.11-10.43.26-14.05,8.33-6.89,22.87-16.43,39.21-16.13,16.21.3,30.28,10.22,38.38,17.41,4.35,3.86,4.22,10.7-.27,14.39-8.36,6.88-22.8,16.27-39.01,15.96Z"/>
      <path class="cls-2" d="M211.21,57.3c-11.96-.22-22.34-7.6-28.25-12.87-3.1-2.77-3.01-7.64.19-10.29,6.1-5.05,16.75-12.04,28.71-11.81,11.87.22,22.18,7.49,28.11,12.75,3.19,2.83,3.09,7.83-.2,10.54-6.13,5.04-16.7,11.91-28.57,11.69Z"/>
      <path class="cls-3" d="M260.11,102.79c-12.01-24.22-47.47-76.49-129.96-76.49S12.2,78.57.2,102.79c-.93,1.88,1.65,3.33,3.31,1.92,49.74-42.33,126.65-41.31,126.65-41.31,0,0,76.91-1.02,126.65,41.31,1.66,1.41,4.24-.04,3.31-1.92Z"/>
      <g>
        <path class="cls-1" d="M158.37,28.51c-8.73-1.42-18.12-2.21-28.21-2.21s-19.48.79-28.21,2.21c3.43,7.36,8.39,20.6,8.61,35.97,11.98-1.18,19.6-1.08,19.6-1.08,0,0,7.62-.1,19.6,1.08.22-15.37,5.18-28.61,8.61-35.97Z"/>
        <path class="cls-1" d="M13.4,81.39c-6,8.02-10.3,15.54-13.21,21.4-.93,1.88,1.65,3.33,3.31,1.92,6.2-5.27,12.81-9.87,19.65-13.89-3.43-2.59-6.83-5.72-9.75-9.44Z"/>
        <path class="cls-1" d="M260.11,102.79c-2.91-5.87-7.21-13.39-13.21-21.4-2.92,3.72-6.32,6.85-9.75,9.44,6.84,4.01,13.46,8.61,19.65,13.89,1.66,1.41,4.24-.04,3.31-1.92Z"/>
      </g>
    </g>
  </g>
</svg>