<?xml version="1.0" encoding="UTF-8" standalone="no"?>
<svg
   xmlns:dc="http://purl.org/dc/elements/1.1/"
   xmlns:cc="http://creativecommons.org/ns#"
   xmlns:rdf="http://www.w3.org/1999/02/22-rdf-syntax-ns#"
   xmlns:svg="http://www.w3.org/2000/svg"
   xmlns="http://www.w3.org/2000/svg"
   viewBox="0 0 347.07999 194.26666"
   height="194.26666"
   width="347.07999"
   xml:space="preserve"
   id="svg2"
   version="1.1"><metadata
     id="metadata8"><rdf:RDF><cc:Work
         rdf:about=""><dc:format>image/svg+xml</dc:format><dc:type
           rdf:resource="http://purl.org/dc/dcmitype/StillImage" /></cc:Work></rdf:RDF></metadata><defs
     id="defs6" /><g
     transform="matrix(1.3333333,0,0,-1.3333333,0,194.26667)"
     id="g10"><g
       transform="scale(0.1)"
       id="g12"><path
         id="path14"
         style="fill:#fabfe2;fill-opacity:1;fill-rule:nonzero;stroke:none"
         d="M 2601.14,24.8398 C 2481.07,267.059 2126.41,789.746 1301.56,789.746 476.703,789.746 122.039,267.059 1.96875,24.8398 -7.33594,6.07031 18.4609,-8.44922 35.0273,5.64844 532.473,428.949 1301.56,418.762 1301.56,418.762 c 0,0 769.08,10.187 1266.52,-413.11356 16.57,-14.09766 42.37,0.42187 33.06,19.19136" /><path
         id="path16"
         style="fill:#f578a6;fill-opacity:1;fill-rule:nonzero;stroke:none"
         d="m 1204.9,1028.6 c 0,0 44.38,36.25 120.24,37.1 80.78,0.89 97.98,-9.89 128.79,-37.1 43.37,-38.315 190.39,-363.424 17.38,-475.909 -30.71,-19.961 -94.03,-24.523 -136.28,-29.019 -43.81,-4.66 -109.66,3.598 -147.51,29.019 -332.266,223.176 17.38,475.909 17.38,475.909" /><path
         id="path18"
         style="fill:#fabfe2;fill-opacity:1;fill-rule:nonzero;stroke:none"
         d="m 1453.93,1028.6 c 0,0 350.58,346.02 500.77,383.37 150.2,37.35 305.67,114.15 372.21,-95.49 66.53,-209.63 20.24,-182.28 124.96,-295.73 104.71,-113.453 103.59,-399.215 -105.62,-438.902 -209.22,-39.688 -625.39,-64.211 -874.94,-29.157 0,0 42.65,97.079 36.77,269.664 -5.88,172.583 -54.15,206.245 -54.15,206.245" /><path
         id="path20"
         style="fill:#fabfe2;fill-opacity:1;fill-rule:nonzero;stroke:none"
         d="m 1204.9,1028.6 c 0,0 -350.587,346.02 -500.779,383.37 -150.195,37.35 -305.668,114.15 -372.203,-95.49 C 265.387,1106.85 311.676,1134.2 206.961,1020.75 102.238,907.297 103.359,621.535 312.578,581.848 521.797,542.16 937.965,517.637 1187.52,552.691 c 0,0 -42.66,97.079 -36.78,269.664 5.88,172.583 54.16,206.245 54.16,206.245" /><path
         id="path22"
         style="fill:#f578a6;fill-opacity:1;fill-rule:nonzero;stroke:none"
         d="m 1503.33,713.785 c 0,0 717.21,244.207 840.41,198.957 123.2,-45.25 113.25,-60.441 91.93,-104.754 -21.32,-44.316 57.04,-153.539 -374.5,-167.015 -431.54,-13.481 -569.07,10.73 -569.07,10.73 l 11.23,62.082" /><path
         id="path24"
         style="fill:#f578a6;fill-opacity:1;fill-rule:nonzero;stroke:none"
         d="m 1172.29,725.922 c 0,0 -717.208,244.207 -840.403,198.957 -123.196,-45.25 -113.254,-60.441 -91.934,-104.758 21.32,-44.312 -57.039,-153.539 374.5,-167.016 431.537,-13.476 569.067,10.735 569.067,10.735 l -11.23,62.082" /></g></g></svg>