<?xml version="1.0" encoding="UTF-8"?>
<svg id="_レイヤー_2" data-name="レイヤー 2" xmlns="http://www.w3.org/2000/svg" viewBox="0 0 260.31 163.28">
  <defs>
    <style>
      .cls-1 {
        fill: #daab43;
      }

      .cls-2 {
        fill: #ae8438;
      }

      .cls-3 {
        fill: #f7c6d4;
      }
    </style>
  </defs>
  <g id="_レイヤー_1-2" data-name="レイヤー 1">
    <g>
      <path class="cls-2" d="M107.84,84.11c-.63-1.81-5.91-14.66-12.51-18.26-1.2-.65-2.53-1.05-4.37-1.6-3.03-.9-7.65-2.29-12.53-5.25-1.23-6.88-2.38-23.59,5.39-30.11,2.78-2.33,3.14-6.47.82-9.25-2.33-2.78-6.47-3.14-9.25-.82-6.46,5.42-10.2,14.27-10.87,25.68-4.71-8.3-7.99-20.19-7.75-37.38C56.83,3.25,53.72.05,49.84,0c-3.89-.04-7.08,3.05-7.13,6.93-.34,24.11,5.52,42.71,17.4,55.27,9.9,10.47,21.33,13.88,26.83,15.52.63.19,1.4.42,1.78.55,1.11.79,4.86,7.72,5.85,10.49,1.02,2.89,3.73,4.7,6.63,4.7.77,0,1.55-.13,2.32-.4,3.67-1.28,5.6-5.3,4.31-8.96Z"/>
      <g>
        <path class="cls-1" d="M84.72,105.59c-3.14-9.08-8.61-19.61-18.05-26.52-12.49-9.14-28.92-9.73-39.23-8.96-5.54.42-9.39,5.69-8.11,11.09,2.38,10.06,7.93,25.54,20.42,34.68,5.77,4.22,12.38,6.62,18.83,7.9l26.15-18.2Z"/>
        <path class="cls-3" d="M43.34,110.96c6.49,4.74,14.42,6.35,21.18,6.67,8.22.4,14.18-7.75,11.31-15.46-2.36-6.34-6.29-13.42-12.77-18.17-9.15-6.69-21.18-7.13-28.73-6.56-4.07.31-6.88,4.15-5.94,8.12,1.74,7.37,5.8,18.71,14.95,25.4Z"/>
      </g>
      <path class="cls-2" d="M152.48,84.11c.63-1.81,5.91-14.66,12.51-18.26,1.2-.65,2.53-1.05,4.37-1.6,3.03-.9,7.65-2.29,12.53-5.25,1.23-6.88,2.38-23.59-5.39-30.11-2.78-2.33-3.14-6.47-.82-9.25,2.33-2.78,6.47-3.14,9.25-.82,6.46,5.42,10.2,14.27,10.87,25.68,4.71-8.3,7.99-20.19,7.75-37.38-.05-3.88,3.05-7.08,6.93-7.13,3.89-.04,7.08,3.05,7.13,6.93.34,24.11-5.52,42.71-17.4,55.27-9.9,10.47-21.33,13.88-26.83,15.52-.63.19-1.4.42-1.78.55-1.11.79-4.86,7.72-5.85,10.49-1.02,2.89-3.73,4.7-6.63,4.7-.77,0-1.55-.13-2.32-.4-3.67-1.28-5.6-5.3-4.31-8.96Z"/>
      <g>
        <path class="cls-1" d="M175.59,105.59c3.14-9.08,8.61-19.61,18.05-26.52,12.49-9.14,28.92-9.73,39.23-8.96,5.54.42,9.39,5.69,8.11,11.09-2.38,10.06-7.93,25.54-20.42,34.68-5.77,4.22-12.38,6.62-18.83,7.9l-26.15-18.2Z"/>
        <path class="cls-3" d="M216.97,110.96c-6.49,4.74-14.42,6.35-21.18,6.67-8.22.4-14.18-7.75-11.31-15.46,2.36-6.34,6.29-13.42,12.77-18.17,9.15-6.69,21.18-7.13,28.73-6.56,4.07.31,6.88,4.15,5.94,8.12-1.74,7.37-5.8,18.71-14.95,25.4Z"/>
      </g>
      <path class="cls-1" d="M260.11,160.79c-12.01-24.22-47.47-76.49-129.96-76.49S12.2,136.57.2,160.79c-.93,1.88,1.65,3.33,3.31,1.92,49.74-42.33,126.65-41.31,126.65-41.31,0,0,76.91-1.02,126.65,41.31,1.66,1.41,4.24-.04,3.31-1.92Z"/>
    </g>
  </g>
</svg>