<?xml version="1.0" encoding="UTF-8"?>
<svg id="_レイヤー_2" data-name="レイヤー 2" xmlns="http://www.w3.org/2000/svg" viewBox="0 0 260.31 160.62">
  <defs>
    <style>
      .cls-1 {
        fill: #fffbee;
      }

      .cls-2 {
        fill: #f5c839;
      }

      .cls-3 {
        fill: #f7c6d4;
      }
    </style>
  </defs>
  <g id="_レイヤー_1-2" data-name="レイヤー 1">
    <g>
      <path class="cls-2" d="M111.33,84.63S91.63,13.64,57.55.08c-1.44-.57-2.4,1.89-1.42,3.64,7.04,12.61,26.98,47.13,26.77,86.28-.04,7.29,8.54,11.26,14.14,6.58l14.29-11.94Z"/>
      <path class="cls-1" d="M78.32,93.65c-5-6.96-13.11-15.72-24.27-19.88-12.86-4.8-26.66-2.32-34.91.08-4.33,1.26-6.02,5.8-3.57,9.58,4.67,7.21,13.48,18.11,26.34,22.91,6.5,2.42,13.25,2.99,19.39,2.65l17.03-15.33Z"/>
      <path class="cls-3" d="M43.53,101.98c-9.42-3.51-15.87-11.5-19.29-16.78-1.79-2.77-.56-6.1,2.62-7.02,6.04-1.76,16.15-3.57,25.57-.06,9.35,3.48,15.77,11.37,19.21,16.65,1.85,2.84.57,6.25-2.68,7.19-6.06,1.74-16.08,3.5-25.42.01Z"/>
      <path class="cls-2" d="M148.99,84.63S168.68,13.64,202.76.08c1.44-.57,2.4,1.89,1.42,3.64-7.04,12.61-26.98,47.13-26.77,86.28.04,7.29-8.54,11.26-14.14,6.58l-14.29-11.94Z"/>
      <path class="cls-1" d="M181.99,93.65c5-6.96,13.11-15.72,24.27-19.88,12.86-4.8,26.66-2.32,34.91.08,4.33,1.26,6.02,5.8,3.57,9.58-4.67,7.21-13.48,18.11-26.34,22.91-6.5,2.42-13.25,2.99-19.39,2.65l-17.03-15.33Z"/>
      <path class="cls-3" d="M216.78,101.98c9.42-3.51,15.87-11.5,19.29-16.78,1.79-2.77.56-6.1-2.62-7.02-6.04-1.76-16.15-3.57-25.57-.06-9.35,3.48-15.77,11.37-19.21,16.65-1.85,2.84-.57,6.25,2.68,7.19,6.06,1.74,16.08,3.5,25.42.01Z"/>
      <path class="cls-1" d="M260.11,158.14c-12.01-24.22-47.47-76.49-129.96-76.49S12.2,133.92.2,158.14c-.93,1.88,1.65,3.33,3.31,1.92,49.74-42.33,126.65-41.31,126.65-41.31,0,0,76.91-1.02,126.65,41.31,1.66,1.41,4.24-.04,3.31-1.92Z"/>
    </g>
  </g>
</svg>