<?xml version="1.0" encoding="UTF-8"?>
<svg id="_レイヤー_2" data-name="レイヤー 2" xmlns="http://www.w3.org/2000/svg" viewBox="0 0 260.31 101.99">
  <defs>
    <style>
      .cls-1 {
        fill: #f6efa1;
      }

      .cls-2 {
        fill: #a16c47;
      }

      .cls-3 {
        fill: #f4a481;
      }
    </style>
  </defs>
  <g id="_レイヤー_1-2" data-name="レイヤー 1">
    <g>
      <path class="cls-1" d="M27.42,3.1c-15.6,16.51-1.49,63.03-1.49,63.03l32.51-17.61,32.51-17.61S55.33-4.11,32.35.4c-1.89.37-3.6,1.3-4.92,2.7Z"/>
      <path class="cls-3" d="M33.44,13.85c-11.49,13.82-.56,49.84-.56,49.84l26.08-14.13,26.08-14.13S57.4,8.28,38.95,10.81c-2.16.3-4.12,1.36-5.51,3.04Z"/>
      <path class="cls-2" d="M232.89,3.1c15.6,16.51,1.49,63.03,1.49,63.03l-32.51-17.61-32.51-17.61S204.98-4.11,227.96.4c1.89.37,3.6,1.3,4.92,2.7Z"/>
      <path class="cls-3" d="M226.87,13.85c11.49,13.82.56,49.84.56,49.84l-26.08-14.13-26.08-14.13s27.63-27.16,46.08-24.62c2.16.3,4.12,1.36,5.51,3.04Z"/>
      <path class="cls-2" d="M260.11,99.5c-12.01-24.22-47.47-76.49-129.96-76.49S12.2,75.28.2,99.5c-.93,1.88,1.65,3.33,3.31,1.92,49.74-42.33,126.65-41.31,126.65-41.31,0,0,76.91-1.02,126.65,41.31,1.66,1.41,4.24-.04,3.31-1.92Z"/>
      <g>
        <path class="cls-1" d="M120.83,31.29c0-2.76.18-5.49.49-8.17C45.13,26.7,11.77,76.06.2,99.39c-.93,1.88,1.65,3.33,3.31,1.92,43.8-37.27,108.65-40.94,123.52-41.28-3.97-8.77-6.2-18.49-6.2-28.74Z"/>
        <path class="cls-1" d="M244.75,75.19c-3.14,3.88-6.7,7.4-10.59,10.53,7.9,4.4,15.55,9.56,22.65,15.6,1.66,1.41,4.24-.04,3.31-1.92-3.25-6.55-8.22-15.15-15.36-24.2Z"/>
      </g>
    </g>
  </g>
</svg>