<?xml version="1.0" encoding="UTF-8"?>
<svg id="_レイヤー_2" data-name="レイヤー 2" xmlns="http://www.w3.org/2000/svg" viewBox="0 0 260.31 103.63">
  <defs>
    <style>
      .cls-1 {
        fill: #040000;
      }

      .cls-2 {
        fill: #f3e100;
      }

      .cls-3 {
        fill: #eb6979;
      }
    </style>
  </defs>
  <g id="_レイヤー_1-2" data-name="レイヤー 1">
    <g>
      <g>
        <circle class="cls-2" cx="48.03" cy="32.75" r="32.75"/>
        <circle class="cls-3" cx="48.03" cy="32.75" r="22.18"/>
      </g>
      <g>
        <circle class="cls-2" cx="212.28" cy="32.75" r="32.75"/>
        <circle class="cls-3" cx="212.28" cy="32.75" r="22.18"/>
      </g>
      <path class="cls-2" d="M260.11,101.14c-12.01-24.22-47.47-76.49-129.96-76.49S12.2,76.92.2,101.14c-.93,1.88,1.65,3.33,3.31,1.92,49.74-42.33,126.65-41.31,126.65-41.31,0,0,76.91-1.02,126.65,41.31,1.66,1.41,4.24-.04,3.31-1.92Z"/>
      <path class="cls-1" d="M142.68,25.1c-4.06-.27-8.21-.45-12.53-.45s-8.47.17-12.53.45v37.13c7.82-.55,12.53-.48,12.53-.48,0,0,4.7-.06,12.53.48V25.1Z"/>
    </g>
  </g>
</svg>