<?xml version="1.0" encoding="UTF-8"?>
<svg id="_レイヤー_2" data-name="レイヤー 2" xmlns="http://www.w3.org/2000/svg" viewBox="0 0 260.31 134.98">
  <defs>
    <style>
      .cls-1 {
        fill: #cb8c44;
      }

      .cls-2 {
        fill: #f9cd92;
      }

      .cls-3 {
        fill: #f29553;
      }
    </style>
  </defs>
  <g id="_レイヤー_1-2" data-name="レイヤー 1">
    <g>
      <path class="cls-1" d="M130.16,55.98c71.32,0,107.47,39.07,123.72,65.31,3.34-6.38,5.24-13.64,5.24-21.34,0-20.42-13.28-37.73-31.67-43.79-1.54-21.8-19.7-39.01-41.89-39.01-6.2,0-12.08,1.35-17.38,3.77C159.94,8.33,145.72,0,129.56,0s-30.38,8.33-38.61,20.92c-5.3-2.41-11.18-3.77-17.38-3.77-22.19,0-40.35,17.21-41.89,39.01C13.28,62.22,0,79.53,0,99.95,0,108.07,2.11,115.7,5.79,122.33c15.93-26.23,52.1-66.34,124.36-66.34Z"/>
      <g>
        <circle class="cls-2" cx="69.55" cy="66.03" r="26.21"/>
        <circle class="cls-3" cx="69.55" cy="66.03" r="17.76"/>
      </g>
      <g>
        <circle class="cls-2" cx="190.76" cy="66.03" r="26.21"/>
        <circle class="cls-3" cx="190.76" cy="66.03" r="17.76"/>
      </g>
      <path class="cls-2" d="M260.11,132.5c-12.01-24.22-47.47-76.49-129.96-76.49S12.2,108.27.2,132.5c-.93,1.88,1.65,3.33,3.31,1.92,49.74-42.33,126.65-41.31,126.65-41.31,0,0,76.91-1.02,126.65,41.31,1.66,1.41,4.24-.04,3.31-1.92Z"/>
      <path class="cls-1" d="M151.9,43.51c-3.53,0-6.73,1.38-9.12,3.62-3.27-3.16-7.71-5.12-12.62-5.12s-9.35,1.95-12.62,5.12c-2.39-2.24-5.59-3.62-9.12-3.62-7.38,0-13.37,5.98-13.37,13.37s5.98,13.37,13.37,13.37c2.08,0,4.05-.49,5.8-1.34,3.09,5.63,9.07,9.45,15.94,9.45s12.86-3.82,15.94-9.45c1.76.85,3.72,1.34,5.8,1.34,7.38,0,13.37-5.98,13.37-13.37s-5.98-13.37-13.37-13.37Z"/>
    </g>
  </g>
</svg>