<?xml version="1.0" encoding="UTF-8" standalone="no"?>
<svg
   xmlns:dc="http://purl.org/dc/elements/1.1/"
   xmlns:cc="http://creativecommons.org/ns#"
   xmlns:rdf="http://www.w3.org/1999/02/22-rdf-syntax-ns#"
   xmlns:svg="http://www.w3.org/2000/svg"
   xmlns="http://www.w3.org/2000/svg"
   viewBox="0 0 347.07999 204.14667"
   height="204.14667"
   width="347.07999"
   xml:space="preserve"
   id="svg2"
   version="1.1"><metadata
     id="metadata8"><rdf:RDF><cc:Work
         rdf:about=""><dc:format>image/svg+xml</dc:format><dc:type
           rdf:resource="http://purl.org/dc/dcmitype/StillImage" /></cc:Work></rdf:RDF></metadata><defs
     id="defs6" /><g
     transform="matrix(1.3333333,0,0,-1.3333333,0,204.14667)"
     id="g10"><g
       transform="scale(0.1)"
       id="g12"><path
         id="path14"
         style="fill:#f2b22b;fill-opacity:1;fill-rule:nonzero;stroke:none"
         d="M 2601.14,24.8398 C 2481.07,267.059 2126.41,789.742 1301.56,789.742 476.703,789.742 122.039,267.059 1.96875,24.8398 -7.33594,6.05859 18.4609,-8.44922 35.0273,5.64063 532.473,428.949 1301.56,418.762 1301.56,418.762 c 0,0 769.08,10.187 1266.52,-413.12137 16.57,-14.08985 42.37,0.41796 33.06,19.19917" /><path
         id="path16"
         style="fill:#e8dc00;fill-opacity:1;fill-rule:nonzero;stroke:none"
         d="m 662.094,1184 c 3.578,-1.41 11.281,-4.23 17.136,-6.19 8.247,-2.82 10.633,-4.12 11.067,-5.85 0.215,-1.3 1.734,-12.48 3.254,-25.06 25.402,-208.423 52.172,-413.47 58.32,-448.22 154.516,56.039 336.339,91.062 549.679,91.062 213.44,0 395.32,-35.051 549.87,-91.129 5,27.035 24.29,174.844 53.25,408.687 4.23,34.29 7.92,63.36 8.14,64.66 0.43,1.73 2.82,3.03 11.06,5.85 23.98,8.14 34.93,14.21 45.45,25.17 25.17,26.15 32.98,64.65 19.96,98.28 -11.5,29.94 -32.11,48.7 -62.05,56.84 -7.7,2.06 -11.71,2.49 -26.9,2.49 -15.18,0 -19.2,-0.43 -26.9,-2.49 -29.94,-8.14 -50.55,-27.01 -61.94,-56.62 -12.04,-31.25 -7.37,-60.53 14.75,-93.07 4.02,-5.75 7.16,-11.29 7.06,-12.26 -0.22,-4.13 -24.85,-57.49 -63.46,-137.66 -32.55,-67.47 -96,-197.529 -96.65,-198.181 -0.33,-0.434 -0.65,1.086 -0.65,3.254 0,2.167 -1.96,37.964 -4.34,79.621 -2.39,41.656 -5.86,101.636 -7.6,133.206 -12.36,219.45 -11.82,208.16 -9.87,211.74 0.54,1.2 5.64,4.89 11.18,8.25 19.3,11.5 31.24,24.08 40.89,43.06 7.27,14 8.79,19.96 9.55,35.26 0.76,16.16 -0.65,25.81 -5.64,37.42 -5.97,14.43 -12.15,23.65 -22.78,34.17 -33.09,32.98 -79.63,37.86 -117.7,12.15 -17.36,-11.72 -31.24,-29.07 -38.07,-47.62 -2.72,-7.38 -5.32,-22.13 -5.32,-30.16 0,-26.03 14.43,-56.73 34.17,-72.78 3.91,-3.15 7.05,-6.29 7.05,-7.06 0,-1.08 -11.82,-35.68 -58.79,-171.82 -19.64,-57.16 -61.4,-176.598 -69.97,-200.68 -5.64,-15.836 -10.52,-29.609 -10.85,-30.586 -0.65,-2.062 -2.49,-2.714 -2.49,-0.871 0,0.543 -2.39,13.887 -5.32,29.508 -6.4,33.949 -31.02,173.339 -56.29,318.919 l -18.23,104.89 9.33,6.29 c 30.05,20.18 44.47,46.97 44.47,82.23 0,14.86 -1.84,22.67 -8.35,36.01 -13.12,26.9 -35.04,45.78 -62.37,53.48 -8.9,2.6 -29.51,3.79 -37.97,2.17 -27.01,-4.88 -53.15,-22.89 -67.47,-46.43 -13.77,-22.78 -16.49,-54.24 -6.83,-80.81 6.4,-17.47 20.28,-34.28 38.72,-46.65 l 9.33,-6.29 -18.22,-104.89 c -25.28,-145.58 -49.9,-284.97 -56.3,-318.919 -2.93,-15.621 -5.32,-28.965 -5.32,-29.508 0,-1.843 -1.84,-1.191 -2.49,0.871 -0.33,0.977 -5.21,14.75 -10.85,30.586 -8.57,24.082 -50.33,143.52 -69.96,200.68 -46.97,136.14 -58.8,170.74 -58.8,171.82 0,0.77 3.15,3.91 7.05,7.06 11.07,9 22.02,24.94 28.86,42.08 4.12,10.2 5.64,24.74 4.23,41.01 -1.09,12.58 -2.28,16.27 -9.76,30.8 -9.23,18.01 -21.59,30.81 -39.6,40.9 -35.902,20.28 -77.558,14.75 -109.125,-14.54 -20.609,-19.2 -31.242,-44.36 -29.937,-71.26 0.648,-14.98 2.82,-23.11 9.437,-36.89 9.219,-18.87 21.258,-31.78 41.004,-43.6 5.531,-3.36 10.629,-7.05 11.172,-8.25 1.734,-3.03 1.41,-12.04 -2.82,-86.77 -9.004,-160.11 -10.524,-186.37 -14.645,-258.176 -2.386,-41.657 -4.34,-77.454 -4.34,-79.621 0,-2.168 -0.324,-3.688 -0.648,-3.254 -0.652,0.652 -64.109,130.711 -96.652,198.181 -38.618,80.17 -63.243,133.53 -63.457,137.66 -0.11,0.97 3.035,6.51 7.05,12.26 22.129,32.54 26.793,61.82 14.75,93.07 -11.386,29.61 -32,48.48 -61.937,56.62 -7.703,2.06 -11.715,2.49 -26.902,2.49 -15.184,0 -19.2,-0.43 -26.903,-2.49 -29.937,-8.14 -50.547,-26.9 -62.047,-56.84 -17.789,-46.1 4.016,-99.26 48.274,-117.26" /></g></g></svg>