<?xml version="1.0" encoding="UTF-8"?>
<svg id="_レイヤー_2" data-name="レイヤー 2" xmlns="http://www.w3.org/2000/svg" viewBox="0 0 571.35 490.12">
  <defs>
    <style>
      .cls-1 {
        fill: #4b4b4b;
      }
    </style>
  </defs>
  <g id="contents">
    <path class="cls-1" d="M546.72,0h-84.96c-10.51,0-19.87,6.68-23.29,16.62l-24.35,70.81H122.22c-.05,0-.11,0-.16,0H24.63c-7.73,0-15.02,3.63-19.67,9.81-4.65,6.18-6.13,14.18-4,21.62l30.9,107.57s.02.07.03.11l30.63,106.62c3.03,10.56,12.69,17.83,23.67,17.83h73.03s.06,0,.09,0c.03,0,.06,0,.1,0h134.1s.06,0,.09,0,.06,0,.09,0h52.35c.23,0,.46-.01.7-.02l11.56,29.31c-7.64,6.22-13.76,14.22-17.74,23.37h-151.91c-9.52-21.9-31.34-37.22-56.74-37.22-34.16,0-61.85,27.69-61.85,61.85s27.69,61.85,61.85,61.85c25.4,0,47.22-15.32,56.74-37.22h151.91c9.52,21.9,31.34,37.22,56.74,37.22,34.16,0,61.85-27.69,61.85-61.85,0-31.2-23.1-56.98-53.12-61.23l-19.21-48.72L479.33,49.25h67.39c13.6,0,24.63-11.03,24.63-24.63s-11.03-24.63-24.63-24.63ZM131.91,452.03c-13.1,0-23.76-10.66-23.76-23.76s10.66-23.76,23.76-23.76,23.76,10.66,23.76,23.76-10.66,23.76-23.76,23.76ZM73.96,194.57l-16.63-57.89h44.43l9.95,57.89h-37.75ZM104.74,301.72l-16.63-57.89h32.06l9.95,57.89h-25.38ZM201.84,301.72h-21.74l-9.95-57.89h31.69v57.89ZM201.84,194.57h-40.16l-9.95-57.89h50.11v57.89ZM272.83,301.72h-21.73v-57.89h31.69l-9.95,57.89ZM291.25,194.57h-40.16v-57.89h50.11l-9.95,57.89ZM340.44,301.72h-17.64l9.95-57.89h27.59l-19.9,57.89ZM397.3,404.51c13.1,0,23.76,10.66,23.76,23.76s-10.66,23.76-23.76,23.76-23.76-10.66-23.76-23.76,10.66-23.76,23.76-23.76ZM377.28,194.57h-36.06l9.96-57.89h46.01l-19.91,57.89Z"/>
  </g>
</svg>